<svg width="163" height="48" viewBox="0 0 163 48" fill="none" xmlns="http://www.w3.org/2000/svg">
<g clip-path="url(#clip0_1_2791)">
<path d="M157.201 48H5.70983C2.56212 48 0 45.4464 0 42.3204V5.6712C0 2.544 2.56212 0 5.70983 0H157.201C160.347 0 163 2.544 163 5.6712V42.3204C163 45.4464 160.347 48 157.201 48Z" fill="#A6A6A6"/>
<path d="M161.831 42.3217C161.831 44.8609 159.762 46.9177 157.202 46.9177H5.70983C3.15133 46.9177 1.07459 44.8609 1.07459 42.3217V5.67011C1.07459 3.13212 3.15133 1.06812 5.70983 1.06812H157.201C159.762 1.06812 161.83 3.13212 161.83 5.67011L161.831 42.3217Z" fill="black"/>
<path d="M36.3761 23.7409C36.3411 19.8733 39.5625 17.9917 39.7098 17.9041C37.8854 15.2605 35.0576 14.8993 34.064 14.8705C31.689 14.6221 29.3853 16.2829 28.1754 16.2829C26.9415 16.2829 25.0784 14.8945 23.0705 14.9353C20.4867 14.9749 18.0694 16.4617 16.7437 18.7705C14.0077 23.4781 16.0482 30.3961 18.6695 34.2013C19.9808 36.0649 21.513 38.1457 23.5185 38.0725C25.4805 37.9921 26.2134 36.8293 28.5811 36.8293C30.9271 36.8293 31.6153 38.0725 33.6607 38.0257C35.7664 37.9921 37.0921 36.1537 38.3575 34.2733C39.8728 32.1373 40.4813 30.0337 40.5055 29.9257C40.456 29.9089 36.416 28.3765 36.3761 23.7409Z" fill="white"/>
<path d="M32.5105 12.3672C33.5657 11.0556 34.2878 9.27125 34.0873 7.46045C32.56 7.52765 30.6498 8.51045 29.5499 9.79325C28.5767 10.9236 27.7074 12.7764 27.932 14.5188C29.6477 14.646 31.4093 13.6584 32.5105 12.3672Z" fill="white"/>
<path d="M64.7733 37.8048H62.0313L60.5293 33.114H55.3085L53.8777 37.8048H51.2081L56.3806 21.8352H59.5754L64.7733 37.8048ZM60.0765 31.146L58.7182 26.976C58.5745 26.55 58.3052 25.5468 57.908 23.9676H57.8597C57.7015 24.6468 57.4468 25.65 57.0966 26.976L55.7624 31.146H60.0765Z" fill="white"/>
<path d="M78.0768 31.9056C78.0768 33.864 77.5443 35.412 76.4794 36.5484C75.5255 37.56 74.3411 38.0652 72.9272 38.0652C71.401 38.0652 70.3047 37.5204 69.637 36.4308H69.5887V42.4968H67.0145V30.0804C67.0145 28.8492 66.9819 27.5856 66.9191 26.2896H69.183L69.3267 28.1148H69.375C70.2335 26.7396 71.5363 26.0532 73.2846 26.0532C74.6514 26.0532 75.7924 26.5896 76.7052 27.6636C77.6204 28.7388 78.0768 30.1524 78.0768 31.9056ZM75.4543 31.9992C75.4543 30.8784 75.2008 29.9544 74.6912 29.2272C74.1346 28.4688 73.3872 28.0896 72.4503 28.0896C71.8152 28.0896 71.238 28.3008 70.7225 28.7172C70.2057 29.1372 69.8676 29.6856 69.7095 30.3648C69.6298 30.6816 69.5899 30.9408 69.5899 31.1448V33.0648C69.5899 33.9024 69.8483 34.6092 70.3651 35.1864C70.8819 35.7636 71.5532 36.0516 72.379 36.0516C73.3486 36.0516 74.1032 35.6796 74.6429 34.938C75.1838 34.1952 75.4543 33.216 75.4543 31.9992Z" fill="white"/>
<path d="M91.4029 31.9056C91.4029 33.864 90.8704 35.412 89.8043 36.5484C88.8517 37.56 87.6672 38.0652 86.2533 38.0652C84.7271 38.0652 83.6308 37.5204 82.9643 36.4308H82.916V42.4968H80.3418V30.0804C80.3418 28.8492 80.3092 27.5856 80.2465 26.2896H82.5103L82.654 28.1148H82.7023C83.5596 26.7396 84.8624 26.0532 86.6119 26.0532C87.9775 26.0532 89.1185 26.5896 90.0337 27.6636C90.9453 28.7388 91.4029 30.1524 91.4029 31.9056ZM88.7804 31.9992C88.7804 30.8784 88.5257 29.9544 88.0161 29.2272C87.4595 28.4688 86.7145 28.0896 85.7764 28.0896C85.1401 28.0896 84.5642 28.3008 84.0474 28.7172C83.5306 29.1372 83.1937 29.6856 83.0356 30.3648C82.9571 30.6816 82.916 30.9408 82.916 31.1448V33.0648C82.916 33.9024 83.1744 34.6092 83.6888 35.1864C84.2055 35.7624 84.8769 36.0516 85.7052 36.0516C86.6747 36.0516 87.4293 35.6796 87.969 34.938C88.51 34.1952 88.7804 33.216 88.7804 31.9992Z" fill="white"/>
<path d="M106.3 33.3265C106.3 34.6849 105.825 35.7901 104.873 36.6433C103.826 37.5757 102.369 38.0413 100.496 38.0413C98.7669 38.0413 97.3808 37.7101 96.3316 37.0465L96.928 34.9141C98.0582 35.5933 99.2982 35.9341 100.649 35.9341C101.619 35.9341 102.373 35.7157 102.916 35.2813C103.455 34.8469 103.725 34.2637 103.725 33.5365C103.725 32.8885 103.502 32.3425 103.057 31.8997C102.614 31.4569 101.874 31.0453 100.84 30.6649C98.0268 29.6221 96.6214 28.0945 96.6214 26.0857C96.6214 24.7729 97.114 23.6965 98.1004 22.8589C99.0833 22.0201 100.394 21.6013 102.034 21.6013C103.496 21.6013 104.711 21.8545 105.681 22.3597L105.037 24.4453C104.131 23.9557 103.108 23.7109 101.962 23.7109C101.056 23.7109 100.349 23.9329 99.8415 24.3745C99.4129 24.7693 99.198 25.2505 99.198 25.8205C99.198 26.4517 99.4431 26.9737 99.9357 27.3841C100.364 27.7633 101.143 28.1737 102.273 28.6165C103.656 29.1697 104.671 29.8165 105.324 30.5581C105.975 31.2973 106.3 32.2225 106.3 33.3265Z" fill="white"/>
<path d="M114.813 28.2096H111.975V33.8004C111.975 35.2224 112.475 35.9328 113.477 35.9328C113.937 35.9328 114.319 35.8932 114.621 35.814L114.692 37.7568C114.185 37.9452 113.517 38.04 112.69 38.04C111.674 38.04 110.879 37.7316 110.306 37.116C109.734 36.4992 109.447 35.4648 109.447 34.0116V28.2072H107.757V26.2872H109.447V24.1788L111.975 23.4204V26.2872H114.813V28.2096Z" fill="white"/>
<path d="M127.613 31.9524C127.613 33.7224 127.104 35.1756 126.087 36.312C125.021 37.482 123.606 38.0652 121.842 38.0652C120.142 38.0652 118.788 37.5048 117.779 36.384C116.77 35.2632 116.265 33.8484 116.265 32.1432C116.265 30.3588 116.784 28.8972 117.826 27.7608C118.866 26.6232 120.269 26.0544 122.033 26.0544C123.733 26.0544 125.101 26.6148 126.133 27.7368C127.121 28.8252 127.613 30.2304 127.613 31.9524ZM124.942 32.0352C124.942 30.9732 124.714 30.0624 124.252 29.3028C123.712 28.3836 122.941 27.9252 121.941 27.9252C120.906 27.9252 120.12 28.3848 119.58 29.3028C119.118 30.0636 118.89 30.9888 118.89 32.0832C118.89 33.1452 119.118 34.056 119.58 34.8144C120.137 35.7336 120.915 36.192 121.918 36.192C122.901 36.192 123.672 35.724 124.229 34.7904C124.703 34.0164 124.942 33.096 124.942 32.0352Z" fill="white"/>
<path d="M135.982 28.5396C135.727 28.4928 135.456 28.4688 135.171 28.4688C134.265 28.4688 133.565 28.8084 133.072 29.4888C132.644 30.0888 132.429 30.8472 132.429 31.7628V37.8048H129.856L129.88 29.916C129.88 28.5888 129.847 27.3804 129.783 26.2908H132.025L132.12 28.494H132.191C132.462 27.7368 132.891 27.1272 133.478 26.67C134.051 26.2584 134.671 26.0532 135.338 26.0532C135.576 26.0532 135.791 26.07 135.982 26.1V28.5396Z" fill="white"/>
<path d="M147.494 31.5025C147.494 31.9609 147.464 32.3473 147.4 32.6629H139.677C139.707 33.8005 140.08 34.6705 140.797 35.2705C141.448 35.8069 142.29 36.0757 143.323 36.0757C144.467 36.0757 145.51 35.8945 146.448 35.5309L146.851 37.3069C145.755 37.7821 144.461 38.0185 142.967 38.0185C141.171 38.0185 139.76 37.4929 138.734 36.4429C137.71 35.3929 137.197 33.9829 137.197 32.2141C137.197 30.4777 137.674 29.0317 138.629 27.8785C139.629 26.6473 140.98 26.0317 142.68 26.0317C144.35 26.0317 145.614 26.6473 146.472 27.8785C147.152 28.8565 147.494 30.0661 147.494 31.5025ZM145.039 30.8389C145.056 30.0805 144.888 29.4253 144.539 28.8721C144.094 28.1605 143.409 27.8053 142.488 27.8053C141.646 27.8053 140.962 28.1521 140.439 28.8481C140.01 29.4013 139.755 30.0649 139.677 30.8377L145.039 30.8389Z" fill="white"/>
<path d="M59.2248 12.0107C59.2248 13.4231 58.7986 14.4863 57.9474 15.2003C57.159 15.8591 56.0385 16.1891 54.5872 16.1891C53.8676 16.1891 53.2518 16.1579 52.7362 16.0955V8.37829C53.4088 8.27029 54.1332 8.21509 54.9156 8.21509C56.2981 8.21509 57.3401 8.51389 58.0428 9.11149C58.83 9.78709 59.2248 10.7531 59.2248 12.0107ZM57.8907 12.0455C57.8907 11.1299 57.6468 10.4279 57.159 9.93829C56.6712 9.44989 55.9588 9.20509 55.0206 9.20509C54.6222 9.20509 54.2829 9.23149 54.0016 9.28669V15.1535C54.1573 15.1775 54.4423 15.1883 54.8564 15.1883C55.8248 15.1883 56.5722 14.9207 57.0986 14.3855C57.625 13.8503 57.8907 13.0703 57.8907 12.0455Z" fill="white"/>
<path d="M66.2977 13.2445C66.2977 14.1145 66.0477 14.8273 65.5479 15.3865C65.0239 15.9613 64.3296 16.2481 63.4627 16.2481C62.6272 16.2481 61.9619 15.9733 61.4656 15.4213C60.9706 14.8705 60.7231 14.1757 60.7231 13.3381C60.7231 12.4621 60.9778 11.7433 61.4898 11.1853C62.0017 10.6273 62.6899 10.3477 63.5569 10.3477C64.3924 10.3477 65.0637 10.6225 65.572 11.1733C66.055 11.7085 66.2977 12.3997 66.2977 13.2445ZM64.9852 13.2853C64.9852 12.7633 64.8717 12.3157 64.6459 11.9425C64.3803 11.4913 64.0024 11.2657 63.511 11.2657C63.0027 11.2657 62.6163 11.4913 62.3507 11.9425C62.1237 12.3157 62.0114 12.7705 62.0114 13.3081C62.0114 13.8301 62.1249 14.2777 62.3507 14.6509C62.6247 15.1021 63.0063 15.3277 63.4989 15.3277C63.9819 15.3277 64.361 15.0985 64.6339 14.6389C64.8681 14.2585 64.9852 13.8073 64.9852 13.2853Z" fill="white"/>
<path d="M75.7826 10.4626L74.0016 16.1194H72.8425L72.1048 13.663C71.9176 13.0498 71.7655 12.4402 71.6472 11.8354H71.6242C71.5144 12.457 71.3622 13.0654 71.1666 13.663L70.383 16.1194H69.2106L67.536 10.4626H68.8363L69.4799 13.1518C69.6356 13.7878 69.7636 14.3938 69.8663 14.9674H69.8892C69.9834 14.4946 70.1391 13.8922 70.3589 13.1638L71.1666 10.4638H72.1978L72.9717 13.1062C73.1589 13.7506 73.311 14.371 73.4281 14.9686H73.4631C73.5489 14.3866 73.678 13.7662 73.8495 13.1062L74.5401 10.4638H75.7826V10.4626Z" fill="white"/>
<path d="M82.3424 16.1196H81.077V12.8796C81.077 11.8812 80.6955 11.382 79.93 11.382C79.5545 11.382 79.2514 11.5188 79.016 11.7936C78.7829 12.0684 78.6646 12.3924 78.6646 12.7632V16.1184H77.3992V12.0792C77.3992 11.5824 77.3836 11.0436 77.3534 10.4604H78.4654L78.5246 11.3448H78.5596C78.7069 11.07 78.9266 10.8432 79.2152 10.662C79.5581 10.4508 79.942 10.344 80.3622 10.344C80.8935 10.344 81.3354 10.5144 81.6868 10.8564C82.1238 11.2752 82.3424 11.9004 82.3424 12.7308V16.1196Z" fill="white"/>
<path d="M85.8323 16.1196H84.5682V7.86719H85.8323V16.1196Z" fill="white"/>
<path d="M93.2826 13.2445C93.2826 14.1145 93.0327 14.8273 92.5328 15.3865C92.0088 15.9613 91.3133 16.2481 90.4476 16.2481C89.6109 16.2481 88.9456 15.9733 88.4506 15.4213C87.9555 14.8705 87.708 14.1757 87.708 13.3381C87.708 12.4621 87.9628 11.7433 88.4747 11.1853C88.9867 10.6273 89.6749 10.3477 90.5406 10.3477C91.3773 10.3477 92.0474 10.6225 92.557 11.1733C93.0399 11.7085 93.2826 12.3997 93.2826 13.2445ZM91.9689 13.2853C91.9689 12.7633 91.8555 12.3157 91.6297 11.9425C91.3652 11.4913 90.9861 11.2657 90.4959 11.2657C89.9864 11.2657 89.6 11.4913 89.3356 11.9425C89.1086 12.3157 88.9963 12.7705 88.9963 13.3081C88.9963 13.8301 89.1098 14.2777 89.3356 14.6509C89.6097 15.1021 89.9912 15.3277 90.4838 15.3277C90.9668 15.3277 91.3447 15.0985 91.6176 14.6389C91.853 14.2585 91.9689 13.8073 91.9689 13.2853Z" fill="white"/>
<path d="M99.4085 16.1197H98.2723L98.1781 15.4681H98.1431C97.7543 15.9877 97.2001 16.2481 96.4805 16.2481C95.9432 16.2481 95.5085 16.0765 95.1813 15.7357C94.8843 15.4261 94.7358 15.0409 94.7358 14.5837C94.7358 13.8925 95.0256 13.3657 95.6087 13.0009C96.1907 12.6361 97.0093 12.4573 98.0634 12.4657V12.3601C98.0634 11.6149 97.6698 11.2429 96.8814 11.2429C96.3199 11.2429 95.8249 11.3833 95.3975 11.6617L95.1403 10.8361C95.6691 10.5109 96.3223 10.3477 97.0927 10.3477C98.5802 10.3477 99.3264 11.1277 99.3264 12.6877V14.7709C99.3264 15.3361 99.3541 15.7861 99.4085 16.1197ZM98.0948 14.1757V13.3033C96.699 13.2793 96.0012 13.6597 96.0012 14.4433C96.0012 14.7385 96.0808 14.9593 96.2438 15.1069C96.4068 15.2545 96.6145 15.3277 96.862 15.3277C97.1397 15.3277 97.3993 15.2401 97.636 15.0661C97.8738 14.8909 98.0199 14.6689 98.0743 14.3965C98.0876 14.3353 98.0948 14.2609 98.0948 14.1757Z" fill="white"/>
<path d="M106.596 16.1196H105.473L105.414 15.2112H105.379C105.02 15.9024 104.409 16.248 103.551 16.248C102.865 16.248 102.294 15.9804 101.841 15.4452C101.388 14.91 101.163 14.2152 101.163 13.362C101.163 12.4464 101.408 11.7048 101.9 11.1384C102.377 10.6104 102.962 10.3464 103.657 10.3464C104.421 10.3464 104.956 10.602 105.261 11.1144H105.285V7.86719H106.551V14.5956C106.551 15.1464 106.566 15.654 106.596 16.1196ZM105.285 13.734V12.7908C105.285 12.6276 105.273 12.4956 105.25 12.3948C105.179 12.0924 105.025 11.838 104.792 11.6328C104.557 11.4276 104.273 11.3244 103.946 11.3244C103.474 11.3244 103.104 11.5104 102.833 11.8836C102.563 12.2568 102.427 12.7332 102.427 13.3152C102.427 13.8744 102.556 14.328 102.816 14.6772C103.09 15.0492 103.459 15.2352 103.922 15.2352C104.337 15.2352 104.669 15.0804 104.921 14.7696C105.165 14.4828 105.285 14.1372 105.285 13.734Z" fill="white"/>
<path d="M117.418 13.2445C117.418 14.1145 117.168 14.8273 116.668 15.3865C116.144 15.9613 115.451 16.2481 114.583 16.2481C113.749 16.2481 113.084 15.9733 112.586 15.4213C112.091 14.8705 111.844 14.1757 111.844 13.3381C111.844 12.4621 112.098 11.7433 112.61 11.1853C113.122 10.6273 113.81 10.3477 114.679 10.3477C115.513 10.3477 116.185 10.6225 116.693 11.1733C117.176 11.7085 117.418 12.3997 117.418 13.2445ZM116.107 13.2853C116.107 12.7633 115.993 12.3157 115.768 11.9425C115.501 11.4913 115.124 11.2657 114.632 11.2657C114.124 11.2657 113.738 11.4913 113.471 11.9425C113.244 12.3157 113.132 12.7705 113.132 13.3081C113.132 13.8301 113.245 14.2777 113.471 14.6509C113.745 15.1021 114.127 15.3277 114.619 15.3277C115.102 15.3277 115.483 15.0985 115.756 14.6389C115.989 14.2585 116.107 13.8073 116.107 13.2853Z" fill="white"/>
<path d="M124.221 16.1196H122.957V12.8796C122.957 11.8812 122.576 11.382 121.809 11.382C121.433 11.382 121.13 11.5188 120.896 11.7936C120.662 12.0684 120.545 12.3924 120.545 12.7632V16.1184H119.278V12.0792C119.278 11.5824 119.264 11.0436 119.234 10.4604H120.344L120.404 11.3448H120.439C120.587 11.07 120.807 10.8432 121.094 10.662C121.438 10.4508 121.821 10.344 122.242 10.344C122.772 10.344 123.214 10.5144 123.566 10.8564C124.004 11.2752 124.221 11.9004 124.221 12.7308V16.1196Z" fill="white"/>
<path d="M132.74 11.4048H131.347V14.1528C131.347 14.8512 131.594 15.2004 132.085 15.2004C132.312 15.2004 132.5 15.1812 132.649 15.1416L132.681 16.0956C132.431 16.1892 132.103 16.236 131.698 16.236C131.198 16.236 130.81 16.0848 130.528 15.7824C130.246 15.48 130.106 14.9712 130.106 14.2572V11.4048H129.274V10.4628H130.106V9.42596L131.346 9.05396V10.4616H132.739L132.74 11.4048Z" fill="white"/>
<path d="M139.438 16.1196H138.171V12.9036C138.171 11.8896 137.79 11.382 137.026 11.382C136.439 11.382 136.038 11.676 135.818 12.264C135.781 12.3876 135.759 12.5388 135.759 12.7164V16.1184H134.495V7.86719H135.759V11.2764H135.783C136.182 10.656 136.753 10.3464 137.493 10.3464C138.017 10.3464 138.45 10.5168 138.794 10.8588C139.223 11.2848 139.438 11.9184 139.438 12.756V16.1196Z" fill="white"/>
<path d="M146.348 13.0235C146.348 13.2491 146.331 13.4387 146.301 13.5935H142.506C142.523 14.1527 142.704 14.5787 143.056 14.8739C143.377 15.1379 143.791 15.2699 144.298 15.2699C144.859 15.2699 145.371 15.1811 145.833 15.0023L146.031 15.8759C145.491 16.1087 144.856 16.2251 144.12 16.2251C143.239 16.2251 142.545 15.9671 142.043 15.4511C141.538 14.9351 141.288 14.2427 141.288 13.3739C141.288 12.5207 141.521 11.8103 141.991 11.2439C142.481 10.6391 143.144 10.3367 143.98 10.3367C144.799 10.3367 145.421 10.6391 145.841 11.2439C146.18 11.7239 146.348 12.3179 146.348 13.0235ZM145.141 12.6983C145.15 12.3251 145.067 12.0035 144.896 11.7323C144.676 11.3831 144.341 11.2079 143.889 11.2079C143.476 11.2079 143.139 11.3783 142.882 11.7203C142.672 11.9927 142.547 12.3179 142.506 12.6983H145.141Z" fill="white"/>
</g>
<defs>
<clipPath id="clip0_1_2791">
<rect width="163" height="48" fill="white"/>
</clipPath>
</defs>
</svg>
