<svg width="18" height="18" viewBox="0 0 18 18" fill="none" xmlns="http://www.w3.org/2000/svg">
<path d="M16.277 17.5407H1.72299C1.49638 17.5416 1.27183 17.4976 1.0623 17.4113C0.85277 17.325 0.662416 17.198 0.502222 17.0377C0.342029 16.8775 0.21517 16.687 0.128968 16.4774C0.0427667 16.2679 -0.00107017 16.0433 -1.18008e-05 15.8167V5.32269C-0.000937762 5.09616 0.0429968 4.87169 0.129258 4.66223C0.215519 4.45277 0.342399 4.26245 0.502579 4.10227C0.662759 3.94209 0.853069 3.81522 1.06253 3.72895C1.27199 3.64269 1.49646 3.59876 1.72299 3.59968H16.277C16.5035 3.59876 16.728 3.64269 16.9374 3.72895C17.1469 3.81522 17.3372 3.94209 17.4974 4.10227C17.6576 4.26245 17.7845 4.45277 17.8707 4.66223C17.957 4.87169 18.0009 5.09616 18 5.32269V15.8167C17.9956 16.2724 17.8126 16.7082 17.4905 17.0305C17.1684 17.3528 16.7327 17.536 16.277 17.5407ZM1.72299 5.09369C1.6633 5.09767 1.60708 5.12318 1.56478 5.16548C1.52248 5.20778 1.49697 5.264 1.49299 5.32368V15.8167C1.49697 15.8764 1.52248 15.9326 1.56478 15.9749C1.60708 16.0172 1.6633 16.0427 1.72299 16.0467H16.277C16.3367 16.0427 16.3929 16.0172 16.4352 15.9749C16.4775 15.9326 16.503 15.8764 16.507 15.8167V5.32269C16.503 5.263 16.4775 5.20678 16.4352 5.16448C16.3929 5.12218 16.3367 5.09667 16.277 5.09268L1.72299 5.09369Z" fill="black"/>
<path d="M12.2545 5.09402H5.74452C5.54152 5.09349 5.34699 5.01262 5.20345 4.86908C5.05992 4.72554 4.97904 4.53102 4.97852 4.32802V2.68102C4.97905 2.09214 5.21321 1.52753 5.62962 1.11112C6.04602 0.694719 6.61063 0.460552 7.19952 0.460022H10.7225C11.3114 0.460552 11.876 0.694719 12.2924 1.11112C12.7088 1.52753 12.943 2.09214 12.9435 2.68102V4.32802C12.9618 4.42595 12.9573 4.52677 12.9303 4.62267C12.9033 4.71858 12.8547 4.80698 12.788 4.88105C12.7214 4.95511 12.6386 5.01285 12.5461 5.04978C12.4536 5.08671 12.3538 5.10185 12.2545 5.09402ZM6.51052 3.60002H11.5275V2.68102C11.5276 2.58538 11.5089 2.49066 11.4724 2.40227C11.4358 2.31389 11.3822 2.23358 11.3146 2.16595C11.247 2.09833 11.1666 2.04471 11.0783 2.00817C10.9899 1.97163 10.8952 1.95289 10.7995 1.95302H7.27852C7.18288 1.95289 7.08815 1.97163 6.99977 2.00817C6.91138 2.04471 6.83108 2.09833 6.76345 2.16595C6.69582 2.23358 6.6422 2.31389 6.60566 2.40227C6.56912 2.49066 6.55038 2.58538 6.55052 2.68102V3.60002H6.51052Z" fill="black"/>
<path d="M4.32752 17.5406C4.12453 17.5401 3.93 17.4592 3.78646 17.3157C3.64292 17.1721 3.56205 16.9776 3.56152 16.7746V4.36762C3.56152 4.16447 3.64223 3.96963 3.78588 3.82598C3.92953 3.68233 4.12437 3.60162 4.32752 3.60162C4.53068 3.60162 4.72551 3.68233 4.86917 3.82598C5.01282 3.96963 5.09352 4.16447 5.09352 4.36762V16.7746C5.08655 16.9756 5.00361 17.1664 4.86144 17.3085C4.71927 17.4507 4.52846 17.5337 4.32752 17.5406Z" fill="black"/>
<path d="M13.6713 17.5406C13.4683 17.5401 13.2737 17.4592 13.1302 17.3157C12.9867 17.1721 12.9058 16.9776 12.9053 16.7746V4.36762C12.9053 4.26703 12.9251 4.16742 12.9636 4.07449C13.0021 3.98155 13.0585 3.89711 13.1296 3.82598C13.2008 3.75485 13.2852 3.69843 13.3781 3.65993C13.4711 3.62144 13.5707 3.60162 13.6713 3.60162C13.7719 3.60162 13.8715 3.62144 13.9644 3.65993C14.0573 3.69843 14.1418 3.75485 14.2129 3.82598C14.284 3.89711 14.3405 3.98155 14.379 4.07449C14.4175 4.16742 14.4373 4.26703 14.4373 4.36762V16.7746C14.4367 16.9776 14.3559 17.1721 14.2123 17.3157C14.0688 17.4592 13.8743 17.5401 13.6713 17.5406Z" fill="black"/>
</svg>
