<svg width="18" height="18" viewBox="0 0 18 18" fill="none" xmlns="http://www.w3.org/2000/svg">
<path d="M5.2959 0.410004C7.47469 0.410067 9.41106 1.64425 10.207 3.4559C10.9801 3.07359 11.8357 2.87415 12.707 2.87973C15.5624 2.8811 17.9999 5.00129 18 7.76352C18 8.18784 17.6558 8.53207 17.2314 8.53207H14.7617C14.5581 8.53195 14.3627 8.45046 14.2188 8.30649L13.9395 8.02719L13.6592 8.30649C13.5152 8.45049 13.3198 8.53198 13.1162 8.53207H11.5C11.5958 8.95333 11.6873 9.39472 11.7646 9.8475C12.1348 12.0157 12.2577 14.6383 11.3691 17.0819C11.2587 17.3854 10.9695 17.5877 10.6465 17.5877H7.35449C7.0978 17.5877 6.85738 17.4594 6.71484 17.2459C6.57233 17.0325 6.54615 16.7613 6.64453 16.5243C7.31485 14.909 7.78855 13.4426 7.42383 11.619C7.34075 11.2031 7.61051 10.798 8.02637 10.7147C8.44244 10.6315 8.84745 10.9021 8.93066 11.3182C9.29413 13.1359 8.97397 14.6608 8.47852 16.0506H10.0918C10.668 14.1027 10.572 11.9912 10.25 10.1053C10.1069 9.26727 9.92348 8.50545 9.74414 7.83286L4.22656 13.3612C4.0823 13.5058 3.8859 13.5869 3.68164 13.5868C3.47747 13.5866 3.28174 13.5049 3.1377 13.3602C1.18882 11.4013 1.40499 8.18108 3.42676 6.15903C3.50081 6.08497 3.57712 6.01341 3.6543 5.94418C3.60552 5.91367 3.55892 5.87906 3.51758 5.83774L3.23828 5.55746L2.95801 5.83774C2.81403 5.98166 2.61861 6.06224 2.41504 6.06235H0.768555C0.344238 6.06235 0 5.71811 0 5.29379C0.000210189 2.53078 2.43943 0.410004 5.2959 0.410004ZM7.35352 6.06235H7.04199C6.15932 6.12134 5.25139 6.50734 4.51367 7.24496C3.21959 8.53905 3.0064 10.3629 3.75391 11.6581L8.92188 6.48422C8.47134 6.22195 7.95506 6.07972 7.41895 6.05844C7.39739 6.06026 7.37554 6.06235 7.35352 6.06235ZM12.6992 4.41586C11.9507 4.41071 11.2177 4.61454 10.582 5.00082C10.5856 5.05774 10.5854 5.11519 10.5869 5.1727C10.6346 5.3542 10.7047 5.5968 10.791 5.88852C10.8843 6.2039 10.9927 6.57805 11.1084 6.99496H12.7979L13.3955 6.39731C13.6955 6.09727 14.1824 6.09727 14.4824 6.39731L15.0801 6.99496H16.3623C15.9775 5.55529 14.536 4.41586 12.7041 4.41586H12.6992ZM5.2959 1.94614C3.4639 1.94614 2.02235 3.08639 1.6377 4.52621H2.09668L2.69434 3.92758C2.99437 3.62754 3.48121 3.62754 3.78125 3.92758L4.37891 4.52621H6.98535C7.6794 4.48301 8.37207 4.58126 9.01758 4.82797C8.76564 3.24879 7.25423 1.94621 5.2959 1.94614Z" fill="black"/>
</svg>
