<svg width="18" height="18" viewBox="0 0 18 18" fill="none" xmlns="http://www.w3.org/2000/svg">
<path d="M3.30565 2.03123C6.8404 -0.865403 12.0643 -0.664045 15.3642 2.63572C18.8784 6.14993 18.8784 11.8491 15.3642 15.3633C11.85 18.8772 6.15179 18.8764 2.63768 15.3623C1.55948 14.2853 0.772107 12.9518 0.35057 11.4873C-0.0707998 10.0231 -0.112944 8.47531 0.227523 6.99021L0.272445 6.80662L1.83592 7.21873C1.42523 8.87124 1.59869 10.6163 2.32811 12.1572C3.07196 13.7286 4.34691 14.9873 5.92772 15.7109C7.50845 16.4344 9.29429 16.5771 10.9697 16.1133C12.6451 15.6493 14.1034 14.6083 15.0869 13.1748C16.0703 11.7412 16.5159 10.0064 16.3457 8.27634C16.1755 6.54616 15.4003 4.9312 14.1562 3.71677C12.9121 2.50233 11.2787 1.76611 9.54491 1.63767C7.81131 1.50929 6.08804 1.997 4.67869 3.01463L4.38377 3.23728L5.2617 4.11619L1.41502 5.00291L2.30272 1.15623L3.23436 2.08884L3.30565 2.03123Z" fill="black"/>
<path d="M9.52441 4.76758C10.1497 4.8453 10.6741 5.06191 11.0859 5.42676C11.5386 5.82012 11.7987 6.33583 11.8672 6.96094L11.8916 7.18262H10.3418L10.3164 7.01172C10.2835 6.79063 10.1821 6.58775 10.002 6.40137L9.99902 6.39941C9.8738 6.26523 9.71711 6.16122 9.52441 6.09082V8.46094C9.98396 8.57968 10.3678 8.70361 10.6729 8.83203C11.0389 8.97501 11.3449 9.20612 11.5879 9.52246C11.8534 9.85747 11.9745 10.2981 11.9746 10.8223C11.9746 11.2245 11.8696 11.609 11.6631 11.9727L11.6621 11.9746C11.4525 12.3353 11.1452 12.6325 10.748 12.8682C10.3971 13.0805 9.98736 13.2086 9.52441 13.2578V14.2002H8.48242V13.2539C7.80987 13.17 7.24288 12.9434 6.79297 12.5645L6.79102 12.5625C6.29575 12.1367 6.03995 11.5912 6.03125 10.9395L6.02832 10.7373H7.56641L7.58398 10.917C7.61146 11.1941 7.71706 11.4319 7.90137 11.6357C8.04441 11.7873 8.23545 11.9004 8.48242 11.9697V9.51562C8.01442 9.39645 7.62545 9.27364 7.31934 9.14453C6.96187 8.99376 6.65799 8.7587 6.4082 8.44434C6.14231 8.10962 6.01956 7.67255 6.01953 7.1543C6.01953 6.48264 6.26389 5.91751 6.75098 5.47461L6.75293 5.47363C7.20555 5.0694 7.7866 4.83691 8.48242 4.76465V3.7998H9.52441V4.76758ZM9.52441 11.9941C9.80554 11.9319 10.0202 11.813 10.1787 11.6455L10.1807 11.6426C10.39 11.4284 10.4922 11.1778 10.4922 10.8799C10.4922 10.5527 10.3906 10.329 10.208 10.1768L10.2051 10.1738C10.0415 10.0324 9.8167 9.90757 9.52441 9.80371V11.9941ZM8.48242 6.03613C8.20867 6.09021 7.99306 6.19455 7.82812 6.34277L7.82617 6.34473C7.63266 6.51264 7.52642 6.75389 7.52637 7.09668C7.52637 7.42636 7.62583 7.65121 7.80176 7.80273C7.95949 7.93851 8.18401 8.06309 8.48242 8.1709V6.03613Z" fill="black"/>
</svg>
