<svg width="18" height="18" viewBox="0 0 18 18" fill="none" xmlns="http://www.w3.org/2000/svg">
<path d="M10.6396 0C11.9856 0 13.08 1.09449 13.0801 2.44043V3.2793H17.1992C17.6413 3.2793 17.9998 3.63804 18 4.08008V9C18 9.44218 17.6414 9.80078 17.1992 9.80078H15.5596C15.0971 9.80078 14.7208 10.1773 14.7207 10.6396C14.7207 11.1021 15.097 11.4795 15.5596 11.4795H17.1992C17.6413 11.4795 17.9998 11.8373 18 12.2793V17.1992C18 17.6414 17.6414 18 17.1992 18H12.2793C11.8373 17.9998 11.4795 17.6413 11.4795 17.1992V15.5596C11.4795 15.0971 11.1021 14.7207 10.6396 14.7207C10.1773 14.7208 9.80078 15.0971 9.80078 15.5596V17.1992C9.80078 17.6414 9.44218 18 9 18H4.08008C3.63804 17.9998 3.2793 17.6413 3.2793 17.1992V13.0801H2.44043C1.09453 13.08 0 11.9856 0 10.6396C0.000120282 9.29384 1.0946 8.19927 2.44043 8.19922H3.2793V4.08008C3.27947 3.63815 3.63815 3.27947 4.08008 3.2793H8.19922V2.44043C8.19927 1.0946 9.29384 0.000120282 10.6396 0ZM10.6396 1.60156C10.1773 1.60168 9.80083 1.97805 9.80078 2.44043V4.08008C9.80078 4.52226 9.44218 4.88086 9 4.88086H4.88086V9C4.88086 9.44218 4.52226 9.80078 4.08008 9.80078H2.44043C1.97808 9.80083 1.60168 10.1773 1.60156 10.6396C1.60156 11.1021 1.97798 11.4794 2.44043 11.4795H4.08008C4.52211 11.4795 4.88062 11.8373 4.88086 12.2793V16.3984H8.19922V15.5596C8.19922 14.2137 9.29381 13.1193 10.6396 13.1191C11.9856 13.1191 13.0801 14.2136 13.0801 15.5596V16.3984H16.3984V13.0801H15.5596C14.2136 13.0801 13.1191 11.9856 13.1191 10.6396C13.1193 9.29381 14.2136 8.19922 15.5596 8.19922H16.3984V4.88086H12.2793C11.8373 4.88062 11.4795 4.52211 11.4795 4.08008V2.44043C11.4794 1.978 11.1021 1.60156 10.6396 1.60156Z" fill="black"/>
</svg>
