<svg width="18" height="18" viewBox="0 0 18 18" fill="none" xmlns="http://www.w3.org/2000/svg">
<path d="M0.261728 8.96646L2.1853 10.5627C2.89043 11.1479 3.74554 11.5003 4.6582 11.5819C4.79351 11.594 4.92861 11.6001 5.06322 11.6001C5.83659 11.6001 6.59319 11.4015 7.27267 11.0176L16.9198 5.56614C17.4149 5.28518 17.7709 4.82828 17.9223 4.27954C18.0737 3.73088 18.0023 3.15603 17.7214 2.66098C17.1479 1.65034 15.8539 1.28551 14.8396 1.84637L11.6692 3.58109L7.5647 2.69483C5.95495 2.3404 4.26323 2.56964 2.801 3.34017C2.56715 3.46339 2.42217 3.7074 2.42576 3.97173C2.42934 4.23609 2.5809 4.47606 2.81801 4.59288L6.58335 6.44814L4.55867 7.54831L4.14926 7.40787C2.87757 6.97156 1.4905 7.12378 0.343709 7.82569C0.150182 7.94409 0.0256982 8.14869 0.00942151 8.37498C-0.00682005 8.60131 0.0871138 8.82155 0.261728 8.96646ZM3.69298 8.73799L4.39471 8.97873C4.581 9.04261 4.78553 9.02552 4.95856 8.93145L8.44786 7.0354C8.67872 6.90997 8.82036 6.66628 8.81512 6.40356C8.80988 6.14089 8.65861 5.90307 8.42293 5.78691L4.91486 4.05838C5.68511 3.8965 6.48674 3.89734 7.26514 4.06872L11.6285 5.01083C11.7937 5.04648 11.9662 5.02152 12.1144 4.94038L15.5173 3.07841C15.8633 2.8872 16.3033 3.01126 16.4984 3.35497C16.594 3.52329 16.6182 3.71886 16.5667 3.90546C16.5152 4.09206 16.3942 4.24748 16.2269 4.34243L6.58085 9.7933C5.47042 10.4208 4.06489 10.2952 3.08329 9.4806L2.06331 8.63414C2.59911 8.52274 3.16074 8.5554 3.69298 8.73799ZM17.9993 15.7138C17.9993 16.1021 17.6845 16.4169 17.2962 16.4169H0.703098C0.314777 16.4169 0 16.1021 0 15.7138C0 15.3254 0.314777 15.0107 0.703098 15.0107H17.2962C17.6845 15.0107 17.9993 15.3254 17.9993 15.7138Z" fill="black"/>
</svg>
