<svg width="96" height="19" viewBox="0 0 96 19" fill="none" xmlns="http://www.w3.org/2000/svg">
<path d="M3.80677 3.216V8.028H9.87877V10.512H3.80677V15.42H11.5108V18H0.566766V0.647999H11.5108V3.216H3.80677ZM24.8955 18H22.0395C21.8235 18 21.6475 17.944 21.5115 17.832C21.3835 17.72 21.2755 17.592 21.1875 17.448L18.5835 13.164C18.5435 13.3 18.4955 13.428 18.4395 13.548C18.3915 13.668 18.3355 13.78 18.2715 13.884L15.9675 17.448C15.8795 17.584 15.7715 17.712 15.6435 17.832C15.5155 17.944 15.3555 18 15.1635 18H12.5115L16.7355 11.652L12.6795 5.688H15.5355C15.7515 5.688 15.9115 5.72 16.0155 5.784C16.1195 5.84 16.2115 5.936 16.2915 6.072L18.8715 10.176C18.9595 9.904 19.0835 9.636 19.2435 9.372L21.3195 6.132C21.4955 5.836 21.7235 5.688 22.0035 5.688H24.7275L20.6835 11.52L24.8955 18ZM34.7 8.292C34.612 8.404 34.524 8.492 34.436 8.556C34.356 8.62 34.236 8.652 34.076 8.652C33.924 8.652 33.776 8.608 33.632 8.52C33.488 8.424 33.316 8.32 33.116 8.208C32.916 8.088 32.676 7.984 32.396 7.896C32.124 7.8 31.784 7.752 31.376 7.752C30.856 7.752 30.4 7.848 30.008 8.04C29.616 8.224 29.288 8.492 29.024 8.844C28.768 9.196 28.576 9.624 28.448 10.128C28.32 10.624 28.256 11.188 28.256 11.82C28.256 12.476 28.324 13.06 28.46 13.572C28.604 14.084 28.808 14.516 29.072 14.868C29.336 15.212 29.656 15.476 30.032 15.66C30.408 15.836 30.832 15.924 31.304 15.924C31.776 15.924 32.156 15.868 32.444 15.756C32.74 15.636 32.988 15.508 33.188 15.372C33.388 15.228 33.56 15.1 33.704 14.988C33.856 14.868 34.024 14.808 34.208 14.808C34.448 14.808 34.628 14.9 34.748 15.084L35.6 16.164C35.272 16.548 34.916 16.872 34.532 17.136C34.148 17.392 33.748 17.6 33.332 17.76C32.924 17.912 32.5 18.02 32.06 18.084C31.628 18.148 31.196 18.18 30.764 18.18C30.004 18.18 29.288 18.04 28.616 17.76C27.944 17.472 27.356 17.056 26.852 16.512C26.348 15.968 25.948 15.304 25.652 14.52C25.364 13.728 25.22 12.828 25.22 11.82C25.22 10.916 25.348 10.08 25.604 9.312C25.868 8.536 26.252 7.868 26.756 7.308C27.26 6.74 27.884 6.296 28.628 5.976C29.372 5.656 30.228 5.496 31.196 5.496C32.116 5.496 32.92 5.644 33.608 5.94C34.304 6.236 34.928 6.66 35.48 7.212L34.7 8.292ZM45.1792 10.428C45.1792 10.044 45.1232 9.684 45.0112 9.348C44.9072 9.004 44.7472 8.704 44.5312 8.448C44.3152 8.192 44.0392 7.992 43.7032 7.848C43.3752 7.696 42.9912 7.62 42.5512 7.62C41.6952 7.62 41.0192 7.864 40.5232 8.352C40.0352 8.84 39.7232 9.532 39.5872 10.428H45.1792ZM39.5272 12.216C39.5752 12.848 39.6872 13.396 39.8632 13.86C40.0392 14.316 40.2712 14.696 40.5592 15C40.8472 15.296 41.1872 15.52 41.5792 15.672C41.9792 15.816 42.4192 15.888 42.8992 15.888C43.3792 15.888 43.7912 15.832 44.1352 15.72C44.4872 15.608 44.7912 15.484 45.0472 15.348C45.3112 15.212 45.5392 15.088 45.7312 14.976C45.9312 14.864 46.1232 14.808 46.3072 14.808C46.5552 14.808 46.7392 14.9 46.8592 15.084L47.7112 16.164C47.3832 16.548 47.0152 16.872 46.6072 17.136C46.1992 17.392 45.7712 17.6 45.3232 17.76C44.8832 17.912 44.4312 18.02 43.9672 18.084C43.5112 18.148 43.0672 18.18 42.6352 18.18C41.7792 18.18 40.9832 18.04 40.2472 17.76C39.5112 17.472 38.8712 17.052 38.3272 16.5C37.7832 15.94 37.3552 15.252 37.0432 14.436C36.7312 13.612 36.5752 12.66 36.5752 11.58C36.5752 10.74 36.7112 9.952 36.9832 9.216C37.2552 8.472 37.6432 7.828 38.1472 7.284C38.6592 6.732 39.2792 6.296 40.0072 5.976C40.7432 5.656 41.5712 5.496 42.4912 5.496C43.2672 5.496 43.9832 5.62 44.6392 5.868C45.2952 6.116 45.8592 6.48 46.3312 6.96C46.8032 7.432 47.1712 8.016 47.4352 8.712C47.7072 9.4 47.8432 10.188 47.8432 11.076C47.8432 11.524 47.7952 11.828 47.6992 11.988C47.6032 12.14 47.4192 12.216 47.1472 12.216H39.5272ZM53.0675 0.167999V18H50.1035V0.167999H53.0675ZM59.0206 0.167999V18H56.0566V0.167999H59.0206ZM69.9058 10.428C69.9058 10.044 69.8498 9.684 69.7378 9.348C69.6338 9.004 69.4738 8.704 69.2578 8.448C69.0418 8.192 68.7658 7.992 68.4298 7.848C68.1018 7.696 67.7178 7.62 67.2778 7.62C66.4218 7.62 65.7458 7.864 65.2498 8.352C64.7618 8.84 64.4498 9.532 64.3138 10.428H69.9058ZM64.2538 12.216C64.3018 12.848 64.4138 13.396 64.5898 13.86C64.7658 14.316 64.9978 14.696 65.2858 15C65.5738 15.296 65.9138 15.52 66.3058 15.672C66.7058 15.816 67.1458 15.888 67.6258 15.888C68.1058 15.888 68.5178 15.832 68.8618 15.72C69.2138 15.608 69.5178 15.484 69.7738 15.348C70.0378 15.212 70.2658 15.088 70.4578 14.976C70.6578 14.864 70.8498 14.808 71.0338 14.808C71.2818 14.808 71.4658 14.9 71.5858 15.084L72.4378 16.164C72.1098 16.548 71.7418 16.872 71.3338 17.136C70.9258 17.392 70.4978 17.6 70.0498 17.76C69.6098 17.912 69.1578 18.02 68.6938 18.084C68.2378 18.148 67.7938 18.18 67.3618 18.18C66.5058 18.18 65.7098 18.04 64.9738 17.76C64.2378 17.472 63.5978 17.052 63.0538 16.5C62.5098 15.94 62.0818 15.252 61.7698 14.436C61.4578 13.612 61.3018 12.66 61.3018 11.58C61.3018 10.74 61.4378 9.952 61.7098 9.216C61.9818 8.472 62.3698 7.828 62.8738 7.284C63.3858 6.732 64.0058 6.296 64.7338 5.976C65.4698 5.656 66.2978 5.496 67.2178 5.496C67.9938 5.496 68.7098 5.62 69.3658 5.868C70.0218 6.116 70.5858 6.48 71.0578 6.96C71.5298 7.432 71.8978 8.016 72.1618 8.712C72.4338 9.4 72.5698 10.188 72.5698 11.076C72.5698 11.524 72.5218 11.828 72.4258 11.988C72.3298 12.14 72.1458 12.216 71.8738 12.216H64.2538ZM77.5661 7.2C77.8141 6.952 78.0741 6.724 78.3461 6.516C78.6261 6.3 78.9181 6.12 79.2221 5.976C79.5341 5.824 79.8661 5.708 80.2181 5.628C80.5701 5.54 80.9541 5.496 81.3701 5.496C82.0421 5.496 82.6381 5.612 83.1581 5.844C83.6781 6.068 84.1101 6.388 84.4541 6.804C84.8061 7.212 85.0701 7.704 85.2461 8.28C85.4301 8.848 85.5221 9.476 85.5221 10.164V18H82.5581V10.164C82.5581 9.412 82.3861 8.832 82.0421 8.424C81.6981 8.008 81.1741 7.8 80.4701 7.8C79.9581 7.8 79.4781 7.916 79.0301 8.148C78.5821 8.38 78.1581 8.696 77.7581 9.096V18H74.7941V5.688H76.6061C76.9901 5.688 77.2421 5.868 77.3621 6.228L77.5661 7.2ZM92.2809 18.192C91.2089 18.192 90.3849 17.892 89.8089 17.292C89.2409 16.684 88.9569 15.848 88.9569 14.784V7.908H87.6969C87.5369 7.908 87.4009 7.856 87.2889 7.752C87.1769 7.648 87.1209 7.492 87.1209 7.284V6.108L89.1009 5.784L89.7249 2.424C89.7649 2.264 89.8409 2.14 89.9529 2.052C90.0649 1.964 90.2089 1.92 90.3849 1.92H91.9209V5.796H95.2089V7.908H91.9209V14.58C91.9209 14.964 92.0129 15.264 92.1969 15.48C92.3889 15.696 92.6489 15.804 92.9769 15.804C93.1609 15.804 93.3129 15.784 93.4329 15.744C93.5609 15.696 93.6689 15.648 93.7569 15.6C93.8529 15.552 93.9369 15.508 94.0089 15.468C94.0809 15.42 94.1529 15.396 94.2249 15.396C94.3129 15.396 94.3849 15.42 94.4409 15.468C94.4969 15.508 94.5569 15.572 94.6209 15.66L95.5089 17.1C95.0769 17.46 94.5809 17.732 94.0209 17.916C93.4609 18.1 92.8809 18.192 92.2809 18.192Z" fill="white"/>
</svg>
