<svg width="18" height="18" viewBox="0 0 18 18" fill="none" xmlns="http://www.w3.org/2000/svg">
<g clip-path="url(#clip0_1_4828)">
<path fill-rule="evenodd" clip-rule="evenodd" d="M17.6998 1.90153C17.6998 1.0186 16.9815 0.300293 16.098 0.300293C15.2577 0.300293 14.4676 0.627519 13.8735 1.22171L11.0243 4.07094L3.93467 2.40279C2.58234 2.0846 1.15605 2.64732 0.385432 3.80318C0.329675 3.88695 0.299805 3.98531 0.299805 4.08593C0.299805 4.27352 0.402822 4.44609 0.567958 4.5349L7.06283 8.03221L3.87454 11.2204H1.90105C1.01813 11.2204 0.299805 11.9388 0.299805 12.8224C0.299805 13.0013 0.393794 13.1673 0.547387 13.2594L3.16817 14.832L4.7406 17.4527C4.83274 17.6061 4.99867 17.7002 5.17776 17.7002C5.60588 17.7002 6.00812 17.5334 6.31026 17.231C6.61293 16.9285 6.77954 16.5263 6.77954 16.0984V14.1256L9.96782 10.9372L13.4651 17.4321C13.5541 17.5972 13.7267 17.7003 13.9141 17.7003C14.0148 17.7003 14.1131 17.6704 14.1969 17.6145C15.3527 16.844 15.9155 15.4178 15.5974 14.0654L13.9292 6.97592L16.7784 4.12669C17.3726 3.53237 17.6998 2.74237 17.6998 1.90153ZM1.60714 3.93659C2.16523 3.43294 2.94966 3.21842 3.70117 3.39511L10.1763 4.91868L11.4033 5.13363L14.5944 1.94255C14.9959 1.54098 15.5298 1.31982 16.0978 1.31982C16.4186 1.31982 16.6803 1.58081 16.6803 1.90206C16.6803 2.4701 16.4591 3.00402 16.0575 3.40573L12.8665 6.59676L13.0814 7.82366L14.6049 14.299C14.7818 15.0505 14.5671 15.8349 14.0636 16.393L10.7206 10.1845L9.96647 9.48363L5.90935 13.5539C5.81363 13.6496 5.76 13.7791 5.76 13.9143V16.0984C5.76 16.2539 5.69947 16.4 5.58929 16.5102C5.54256 16.5569 5.48933 16.5947 5.43158 16.6227L3.97675 14.1981C3.93375 14.1264 3.87374 14.0662 3.80192 14.0232L1.37748 12.5686C1.47173 12.3743 1.67099 12.2402 1.90105 12.2402H4.08575C4.22089 12.2402 4.35058 12.1863 4.44617 12.0908L8.53647 8.00046L7.81553 7.27952L1.60714 3.93659Z" fill="black" stroke="black" stroke-width="0.6"/>
</g>
<defs>
<clipPath id="clip0_1_4828">
<rect width="18" height="18" fill="white"/>
</clipPath>
</defs>
</svg>
