<svg width="18" height="18" viewBox="0 0 18 18" fill="none" xmlns="http://www.w3.org/2000/svg">
<path d="M9.9254 0C10.9379 0.00269994 11.4518 0.00809981 11.8955 0.0206995L12.0701 0.0269993C12.2716 0.0341992 12.4705 0.0431989 12.7108 0.0539987C13.6684 0.0989976 14.3218 0.250194 14.8951 0.472489C15.4891 0.701084 15.9895 1.01068 16.4898 1.51016C16.9475 1.96006 17.3016 2.50427 17.5275 3.10493C17.7498 3.67821 17.901 4.3316 17.946 5.29008C17.9568 5.52947 17.9658 5.72837 17.973 5.93086L17.9784 6.10546C17.9919 6.54825 17.9973 7.06214 17.9991 8.07461L18 8.746V9.92497C18.0022 10.5814 17.9953 11.2379 17.9793 11.8941L17.9739 12.0687C17.9667 12.2712 17.9577 12.4701 17.9469 12.7095C17.9019 13.668 17.7489 14.3205 17.5275 14.8947C17.3022 15.4956 16.948 16.04 16.4898 16.4894C16.0398 16.9469 15.4956 17.301 14.8951 17.5271C14.3218 17.7494 13.6684 17.9006 12.7108 17.9456C12.4973 17.9556 12.2837 17.9646 12.0701 17.9726L11.8955 17.978C11.4518 17.9906 10.9379 17.9969 9.9254 17.9987L9.25401 17.9996H8.07594C7.41919 18.0018 6.76245 17.9949 6.10589 17.9789L5.93129 17.9735C5.71765 17.9654 5.50405 17.9561 5.29051 17.9456C4.33293 17.9006 3.67955 17.7494 3.10536 17.5271C2.50478 17.3015 1.96078 16.9474 1.5115 16.4894C1.05345 16.0397 0.699017 15.4954 0.472921 14.8947C0.250626 14.3214 0.0994292 13.668 0.0544302 12.7095C0.0444034 12.496 0.0354035 12.2824 0.0274309 12.0687L0.0229311 11.8941C0.00634634 11.2379 -0.00115429 10.5814 0.00043155 9.92497V8.07461C-0.00208026 7.41817 0.00452029 6.76172 0.0202312 6.10546L0.026531 5.93086C0.0337308 5.72837 0.0427306 5.52947 0.0535303 5.29008C0.0985293 4.3316 0.249726 3.67911 0.47202 3.10493C0.698018 2.50366 1.05316 1.95928 1.5124 1.51016C1.96157 1.0525 2.5052 0.698372 3.10536 0.472489C3.67955 0.250194 4.33203 0.0989976 5.29051 0.0539987C5.5299 0.0431989 5.7297 0.0341992 5.93129 0.0269993L6.10589 0.0215994C6.76215 0.00560931 7.41859 -0.0012912 8.07504 0.000899914L9.9254 0ZM9.00022 4.4999C7.80678 4.4999 6.66221 4.97399 5.81832 5.81788C4.97442 6.66178 4.50033 7.80634 4.50033 8.99979C4.50033 10.1932 4.97442 11.3378 5.81832 12.1817C6.66221 13.0256 7.80678 13.4997 9.00022 13.4997C10.1937 13.4997 11.3382 13.0256 12.1821 12.1817C13.026 11.3378 13.5001 10.1932 13.5001 8.99979C13.5001 7.80634 13.026 6.66178 12.1821 5.81788C11.3382 4.97399 10.1937 4.4999 9.00022 4.4999ZM9.00022 6.29985C9.35478 6.29979 9.70588 6.36957 10.0335 6.5052C10.3611 6.64083 10.6587 6.83966 10.9095 7.09033C11.1603 7.341 11.3592 7.6386 11.4949 7.96615C11.6307 8.2937 11.7005 8.64478 11.7006 8.99934C11.7007 9.3539 11.6309 9.705 11.4953 10.0326C11.3596 10.3602 11.1608 10.6579 10.9101 10.9086C10.6595 11.1594 10.3619 11.3583 10.0343 11.494C9.70676 11.6298 9.35568 11.6997 9.00112 11.6997C8.28505 11.6997 7.59831 11.4153 7.09198 10.9089C6.58564 10.4026 6.30118 9.71586 6.30118 8.99979C6.30118 8.28372 6.58564 7.59698 7.09198 7.09065C7.59831 6.58431 8.28505 6.29985 9.00112 6.29985M13.726 3.14993C13.4276 3.14993 13.1415 3.26845 12.9305 3.47942C12.7196 3.6904 12.601 3.97654 12.601 4.2749C12.601 4.57326 12.7196 4.8594 12.9305 5.07038C13.1415 5.28135 13.4276 5.39987 13.726 5.39987C14.0244 5.39987 14.3105 5.28135 14.5215 5.07038C14.7325 4.8594 14.851 4.57326 14.851 4.2749C14.851 3.97654 14.7325 3.6904 14.5215 3.47942C14.3105 3.26845 14.0244 3.14993 13.726 3.14993Z" fill="#666666"/>
</svg>
