<svg width="40" height="40" viewBox="0 0 40 40" fill="none" xmlns="http://www.w3.org/2000/svg">
<rect width="40" height="40" rx="8" fill="#F7B28B"/>
<g clip-path="url(#clip0_1_244)">
<path d="M20.918 24.5901L17.2458 28.2623C17.2458 28.2623 17.2459 28.2624 17.2458 28.2624C17.2458 28.2624 17.2458 28.2625 17.2457 28.2625C15.7271 29.7811 13.2562 29.7812 11.7375 28.2625C11.0017 27.5268 10.5967 26.5486 10.5967 25.5083C10.5967 24.4681 11.0017 23.4901 11.7372 22.7544C11.7373 22.7543 11.7374 22.7542 11.7375 22.7541L15.4096 19.0819C15.9165 18.5749 15.9165 17.7528 15.4095 17.2458C14.9025 16.7389 14.0804 16.7389 13.5734 17.2458L9.90128 20.918C9.90102 20.9183 9.90076 20.9186 9.9005 20.9189C8.67496 22.1449 8 23.7748 8 25.5083C8 27.2423 8.67522 28.8725 9.90136 30.0986C11.167 31.3641 12.8293 31.9969 14.4917 31.9969C16.154 31.9969 17.8164 31.3641 19.0819 30.0986C19.082 30.0986 19.082 30.0984 19.082 30.0984L22.7541 26.4262C23.261 25.9193 23.261 25.0972 22.754 24.5901C22.2471 24.0832 21.4251 24.0832 20.918 24.5901Z" fill="black"/>
<path d="M32.0018 14.4916C32.0018 12.7576 31.3265 11.1275 30.1003 9.90131C27.5692 7.37026 23.4508 7.37034 20.9198 9.90131C20.9198 9.90148 20.9196 9.90157 20.9195 9.90174L17.2475 13.5737C16.7404 14.0806 16.7404 14.9028 17.2475 15.4098C17.5011 15.6634 17.8333 15.7901 18.1656 15.7901C18.4978 15.7901 18.8301 15.6633 19.0836 15.4098L22.7556 11.7378C22.7557 11.7377 22.7559 11.7376 22.756 11.7374C24.2746 10.2189 26.7455 10.2188 28.2642 11.7374C28.9999 12.4731 29.4051 13.4513 29.4051 14.4916C29.4051 15.5318 29.0001 16.5098 28.2645 17.2455L28.2642 17.2458L24.5921 20.918C24.0852 21.425 24.0852 22.2471 24.5922 22.7541C24.8457 23.0076 25.178 23.1344 25.5102 23.1344C25.8425 23.1344 26.1748 23.0076 26.4283 22.7541L30.1004 19.0819C30.1007 19.0816 30.1009 19.0813 30.1012 19.081C31.3267 17.8551 32.0018 16.2251 32.0018 14.4916Z" fill="black"/>
<path d="M15.4115 24.5901C15.6651 24.8437 15.9973 24.9705 16.3295 24.9705C16.6618 24.9705 16.9941 24.8437 17.2476 24.5901L24.592 17.2457C25.0991 16.7388 25.0991 15.9167 24.592 15.4096C24.0851 14.9027 23.263 14.9027 22.7559 15.4096L15.4115 22.7539C14.9045 23.2611 14.9045 24.0832 15.4115 24.5901Z" fill="black"/>
</g>
<defs>
<clipPath id="clip0_1_244">
<rect width="24" height="24" fill="white" transform="translate(8 8)"/>
</clipPath>
</defs>
</svg>
