<svg width="128" height="32" viewBox="0 0 128 32" fill="none" xmlns="http://www.w3.org/2000/svg">
<path d="M16.3775 1.27999C16.1195 1.27998 15.8618 1.295 15.6057 1.325C14.9691 1.40111 14.3467 1.56508 13.7572 1.812C9.60665 3.534 6.55133 9.242 6.55133 16C6.55133 22.758 9.60665 28.466 13.7572 30.188C14.3467 30.4349 14.9691 30.5989 15.6057 30.675C15.8618 30.705 16.1195 30.72 16.3775 30.72C21.7962 30.72 26.2036 24.12 26.2036 16C26.2036 7.88 21.7962 1.27999 16.3775 1.27999Z" fill="#F8CC5D"/>
<path d="M5.98057 10.2398H2.09412C1.62489 11.9096 1.36505 13.6288 1.32031 15.3598H5.2518C5.2949 13.6316 5.53873 11.9138 5.98057 10.2398Z" fill="#F8CC5D"/>
<path d="M8.20197 5.1204H4.52433C3.67389 6.30312 2.99562 7.59545 2.50894 8.9604H6.36775C6.81881 7.61296 7.43467 6.32364 8.20197 5.1204Z" fill="#F8CC5D"/>
<path d="M5.2518 16.6405H1.32031C1.36505 18.3715 1.62489 20.0907 2.09412 21.7605H5.98364C5.5418 20.0865 5.29695 18.3687 5.25384 16.6405" fill="#F8CC5D"/>
<path d="M11.9084 1.325C11.6522 1.295 11.3945 1.27997 11.1366 1.27999C10.0849 1.31383 9.05155 1.55853 8.10072 1.99892C7.1499 2.43931 6.3019 3.06597 5.60938 3.84H9.12734C9.90654 2.85658 10.8478 2.00665 11.9124 1.325" fill="#F8CC5D"/>
<path d="M6.36775 23.04H2.50894C2.99564 24.405 3.6739 25.6973 4.52433 26.88H8.20197C7.43474 25.6767 6.81889 24.3874 6.36775 23.04Z" fill="#F8CC5D"/>
<path d="M9.1226 28.1606H5.60156C6.29408 28.9346 7.14209 29.5613 8.09291 30.0017C9.04374 30.442 10.0771 30.6868 11.1288 30.7206C11.3867 30.7206 11.6444 30.7056 11.9005 30.6756C10.8385 29.9932 9.89971 29.1434 9.1226 28.1606Z" fill="#F8CC5D"/>
<path d="M16.3768 0H11.1362C8.11055 0 5.28451 1.7 3.18007 4.784C1.02774 8.14165 -0.0773009 12.039 -0.000122765 16C-0.0773009 19.961 1.02774 23.8583 3.18007 27.216C5.28451 30.3 8.11055 32 11.1362 32H16.3768C19.4024 32 22.2285 30.3 24.3329 27.216C26.4852 23.8583 27.5903 19.961 27.5131 16C27.5903 12.039 26.4852 8.14165 24.3329 4.784C22.2285 1.7 19.4024 0 16.3768 0ZM11.1362 1.28C11.3941 1.27998 11.6518 1.29501 11.9079 1.325C10.8433 2.00667 9.90206 2.8566 9.12285 3.84H5.60488C6.2974 3.06598 7.1454 2.43931 8.09623 1.99893C9.04706 1.55854 10.0804 1.31383 11.1321 1.28M4.524 5.12H8.20164C7.43477 6.32333 6.81927 7.61265 6.36845 8.96H2.50862C2.99531 7.59506 3.67358 6.30273 4.524 5.12ZM2.09408 10.24H5.9836C5.54175 11.914 5.2969 13.6318 5.2538 15.36H1.32027C1.36501 13.629 1.62485 11.9097 2.09408 10.24ZM1.32027 16.64H5.25073C5.29383 18.3682 5.53868 20.086 5.98053 21.76H2.09101C1.62178 20.0903 1.36194 18.371 1.3172 16.64M4.524 26.88C3.67357 25.6973 2.9953 24.4049 2.50862 23.04H6.36743C6.81857 24.3874 7.43442 25.6767 8.20164 26.88H4.524ZM11.1362 30.72C10.0845 30.6862 9.05115 30.4415 8.10032 30.0011C7.1495 29.5607 6.30149 28.934 5.60897 28.16H9.12285C9.90237 29.1435 10.8439 29.9934 11.909 30.675C11.6529 30.705 11.3941 30.72 11.1362 30.72ZM16.3778 30.72C16.1199 30.72 15.8622 30.705 15.6061 30.675C14.9694 30.5989 14.347 30.4349 13.7575 30.188C9.60597 28.466 6.55065 22.758 6.55065 16C6.55065 9.242 9.60597 3.534 13.7565 1.812C14.346 1.56508 14.9684 1.40112 15.605 1.325C15.8611 1.29501 16.1189 1.27998 16.3768 1.28C21.7955 1.28 26.203 7.88 26.203 16C26.203 24.12 21.7965 30.72 16.3778 30.72Z" fill="black"/>
<path d="M20.5222 11.4567L16.8937 12.3817L17.4269 7.29366C17.4356 7.20624 17.4245 7.11804 17.3944 7.03527C17.3643 6.95251 17.3161 6.8772 17.2529 6.81466C17.1958 6.75542 17.1238 6.71187 17.044 6.68836C16.9643 6.66484 16.8796 6.66219 16.7985 6.68066L12.5354 7.76666C12.4383 7.7951 12.3531 7.85298 12.292 7.93191C12.2309 8.01084 12.1971 8.10672 12.1955 8.20566L11.6008 17.8827C11.5959 17.9682 11.6098 18.0538 11.6416 18.1337C11.6734 18.2135 11.7223 18.2858 11.7851 18.3457C11.842 18.4022 11.9128 18.4436 11.9908 18.4656C12.0688 18.4877 12.1513 18.4898 12.2303 18.4717L16.4546 17.3957L16.864 24.7957C16.8678 24.9179 16.9123 25.0356 16.9905 25.131C17.0688 25.2264 17.1767 25.2944 17.298 25.3247C17.3623 25.3393 17.4292 25.3393 17.4935 25.3247C17.5734 25.3024 17.6457 25.2594 17.7026 25.2002C17.7596 25.1411 17.799 25.068 17.8169 24.9887L21.1404 12.1547C21.1628 12.0626 21.1626 11.9668 21.1398 11.8748C21.1171 11.7829 21.0724 11.6975 21.0094 11.6257C20.9528 11.557 20.8776 11.5052 20.7924 11.4762C20.7072 11.4472 20.6153 11.4422 20.5273 11.4617" fill="black"/>
<path d="M49.3999 11.9211C49.3426 12.1817 49.2829 12.4331 49.2208 12.6751C49.1587 12.9171 49.099 13.1477 49.0417 13.3671C48.9873 13.5651 48.9584 13.769 48.9557 13.9741C48.9557 14.0674 48.8653 14.1791 48.6844 14.3091C48.4852 14.4508 48.2747 14.5769 48.0549 14.6861C47.8168 14.8074 47.5831 14.9171 47.3538 15.0151C47.1952 15.086 47.0329 15.1487 46.8676 15.2031C46.5721 15.2784 46.2791 15.3507 45.9884 15.4201C45.6977 15.4894 45.4046 15.5661 45.1091 15.6501C45.4046 15.8274 45.6929 16.0021 45.9741 16.1741C46.2552 16.3461 46.5435 16.5161 46.8389 16.6841L47.2177 16.9011C47.3541 16.9804 47.4906 17.0644 47.6271 17.1531C47.7565 17.238 47.8741 17.3388 47.9771 17.4531C48.0743 17.5616 48.1444 17.6906 48.1819 17.8301C48.3092 18.2509 48.3858 18.6849 48.4101 19.1231C48.4388 19.5844 48.4531 20.0291 48.4531 20.4571C48.453 20.8915 48.4793 21.3256 48.5319 21.7571C48.5845 22.1857 48.6346 22.6234 48.6824 23.0701C48.7302 23.4247 48.7708 23.7811 48.8042 24.1391C48.8376 24.4971 48.8782 24.8531 48.926 25.2071C48.4483 25.1324 47.9884 25.0717 47.5462 25.0251C47.0879 24.9777 46.6273 24.9543 46.1665 24.9551C45.9188 24.9551 45.6779 24.9504 45.4438 24.9411C45.2098 24.9317 44.9737 24.9177 44.7355 24.8991C44.872 24.4324 44.9839 23.9657 45.0713 23.4991C45.1619 23.0339 45.2075 22.5615 45.2074 22.0881C45.2074 21.6321 45.2026 21.1757 45.1931 20.7191C45.1835 20.2624 45.1787 19.8061 45.1787 19.3501C45.1699 19.0972 45.1116 18.8484 45.0068 18.6171C44.9158 18.3811 44.7854 18.1614 44.6209 17.9671C44.4924 17.8924 44.3482 17.8473 44.1992 17.8351C43.9658 17.7931 43.7106 17.7557 43.4336 17.7231C43.1565 17.6904 42.8969 17.6647 42.6546 17.6461C42.4117 17.6274 42.2568 17.6134 42.19 17.6041C42.2091 18.3961 42.2432 19.1831 42.2923 19.9651C42.3414 20.7471 42.3653 21.5341 42.364 22.3261C42.3635 22.5344 42.3802 22.7424 42.4141 22.9481C42.4475 23.1481 42.4881 23.3504 42.5359 23.5551C42.0971 23.4804 41.6679 23.4177 41.2483 23.3671C40.8119 23.3148 40.3726 23.2891 39.933 23.2901H39.2247C38.9913 23.2901 38.76 23.2811 38.5307 23.2621C38.6614 22.819 38.7522 22.3656 38.802 21.9071C38.8497 21.4597 38.8808 21.0127 38.8951 20.5661C38.9095 20.1194 38.9166 19.6724 38.9166 19.2251C38.9166 18.7777 38.9309 18.3214 38.9596 17.8561C39.0074 17.1294 39.0336 16.4007 39.0384 15.6701C39.0432 14.9394 39.0456 14.2104 39.0456 13.4831C39.0456 12.7497 39.0115 12.0231 38.9432 11.3031C38.875 10.5831 38.8409 9.8564 38.8409 9.12306C38.8403 8.81848 38.8115 8.51458 38.7549 8.21506C38.6998 7.92949 38.671 7.63966 38.6689 7.34906C38.6591 7.23947 38.6274 7.13282 38.5758 7.03506C38.5137 6.90173 38.4639 6.79673 38.4263 6.72006C38.6993 6.7014 38.978 6.6874 39.2626 6.67806C39.5441 6.66906 39.8225 6.66406 40.0988 6.66406C40.6298 6.66393 41.1602 6.69902 41.6864 6.76906C42.2078 6.83714 42.7335 6.87054 43.2596 6.86906C43.5629 6.86941 43.866 6.85339 44.1675 6.82106C44.4689 6.78831 44.772 6.77195 45.0754 6.77206C45.2912 6.77881 45.5063 6.79986 45.7192 6.83506C46.0051 6.87706 46.2982 6.93506 46.5984 7.00906C46.8777 7.07742 47.1514 7.166 47.4173 7.27406C47.6072 7.33355 47.7725 7.45097 47.8891 7.60906C48.0843 7.94157 48.3145 8.25326 48.5759 8.53906C48.8391 8.82677 49.0606 9.14844 49.2341 9.49506C49.297 9.60342 49.3406 9.72143 49.363 9.84406C49.3917 9.98406 49.4153 10.1311 49.4347 10.2851C49.4541 10.4391 49.4654 10.5851 49.4705 10.7321C49.4756 10.8791 49.4777 10.9991 49.4777 11.1021C49.4784 11.3743 49.4496 11.6458 49.3917 11.9121M45.623 11.0951C45.577 10.8941 45.5196 10.6958 45.451 10.5011C45.3844 10.3091 45.3079 10.1205 45.2217 9.93606C45.1743 9.80803 45.0931 9.69453 44.9863 9.60706C44.8925 9.55703 44.7856 9.53544 44.6792 9.54506C44.5503 9.54506 44.4479 9.55206 44.3722 9.55206C44.1722 9.55206 43.9648 9.56139 43.7499 9.58006C43.5349 9.59906 43.323 9.60806 43.1132 9.60806C42.9419 9.60806 42.7713 9.60339 42.6014 9.59406C42.4315 9.58473 42.2575 9.57073 42.0794 9.55206C42.0788 9.91234 42.0501 10.2721 41.9934 10.6281C41.9367 10.9841 41.9079 11.3438 41.9075 11.7041C41.9078 12.1943 41.9365 12.684 41.9934 13.1711C42.0507 13.6651 42.1033 14.1494 42.1511 14.6241C42.316 14.5296 42.487 14.4454 42.6628 14.3721C42.8962 14.2694 43.1442 14.1717 43.407 14.0791C43.6697 13.9864 43.9225 13.9051 44.1654 13.8351C44.3389 13.7779 44.5191 13.7426 44.7018 13.7301C44.8086 13.7349 44.9151 13.7145 45.0122 13.6706C45.1093 13.6268 45.1941 13.5607 45.2596 13.4781C45.3991 13.2977 45.4988 13.091 45.5523 12.8711C45.6148 12.6306 45.6532 12.3848 45.667 12.1371C45.6813 11.8851 45.6885 11.6811 45.6885 11.5221C45.6812 11.3783 45.6596 11.2357 45.624 11.0961" fill="black"/>
<path d="M59.2464 24.3913C58.8114 24.3488 58.3745 24.3278 57.9373 24.3283C57.5278 24.3283 57.1205 24.34 56.7151 24.3633C56.3098 24.3867 55.8973 24.42 55.4776 24.4633C55.4215 23.9622 55.3928 23.4585 55.3917 22.9543C55.3917 22.7497 55.3988 22.552 55.4132 22.3613C55.4282 22.1659 55.4594 21.9719 55.5063 21.7813C55.0198 21.828 54.5421 21.8723 54.0733 21.9143C53.6011 21.957 53.1327 22.0339 52.6721 22.1443C52.5912 22.3116 52.5228 22.4844 52.4674 22.6613C52.4158 22.8248 52.3774 22.992 52.3527 23.1613C52.3288 23.3304 52.3144 23.5007 52.3097 23.6713C52.305 23.8433 52.2978 24.0223 52.2882 24.2083C51.6018 24.2643 50.9153 24.3063 50.2288 24.3343C49.5424 24.3623 48.8511 24.4043 48.1551 24.4603C48.4281 23.781 48.7187 23.1083 49.0272 22.4423C49.3356 21.7763 49.6335 21.1077 49.9208 20.4363C50.2115 19.7657 50.4878 19.088 50.7498 18.4033C51.013 17.7165 51.2351 17.0153 51.4151 16.3033C51.6054 15.5742 51.8353 14.8555 52.104 14.1503C52.3708 13.447 52.6543 12.7507 52.9546 12.0613C53.2548 11.372 53.5619 10.6853 53.8758 10.0013C54.1903 9.31667 54.4906 8.625 54.7765 7.92634C55.3108 9.31434 55.8042 10.7 56.2566 12.0833C56.709 13.4667 57.1024 14.8753 57.4367 16.3093C57.5693 16.8378 57.734 17.3581 57.9301 17.8673C58.1252 18.3753 58.3231 18.8897 58.5238 19.4103C58.8574 20.2577 59.1986 21.103 59.5473 21.9463C59.896 22.7897 60.2225 23.6487 60.5269 24.5233C60.0977 24.4767 59.6712 24.4327 59.2474 24.3913M54.5493 14.8833L53.4909 19.2563L55.1358 19.0563L54.5493 14.8833Z" fill="black"/>
<path d="M71.2018 10.8238C71.1684 11.1465 71.1517 11.4705 71.1517 11.7948C71.1515 12.0541 71.1659 12.3131 71.1947 12.5708C71.2231 12.8235 71.2374 13.0776 71.2377 13.3318H70.7412C70.2686 13.3512 69.7951 13.3325 69.3256 13.2758C68.856 13.2192 68.3833 13.1911 67.9101 13.1918C67.726 13.192 67.542 13.1806 67.3594 13.1578C67.1731 13.1348 66.995 13.1088 66.823 13.0808C66.8854 13.3949 66.9309 13.712 66.9592 14.0308C66.9926 14.3855 67.0165 14.7488 67.0308 15.1208C67.0452 15.4928 67.0523 15.8632 67.0523 16.2318V17.2318C67.0514 17.6954 67.0921 18.1582 67.1741 18.6148C67.2556 19.0668 67.2964 19.5249 67.2959 19.9838C67.2959 20.1985 67.2912 20.4105 67.2816 20.6198C67.2721 20.8292 67.2673 21.0362 67.2673 21.2408C67.2668 21.8988 67.3215 22.5556 67.4311 23.2048C67.5389 23.8447 67.6894 24.4771 67.8814 25.0978C67.6051 25.0978 67.3287 25.0932 67.0523 25.0838C66.776 25.0745 66.503 25.0698 66.2335 25.0698C65.6179 25.0704 65.0029 25.1038 64.3911 25.1698C63.781 25.2365 63.1754 25.2925 62.5743 25.3378L62.5456 24.8768C62.5359 24.4918 62.5574 24.1066 62.6101 23.7248C62.6626 23.3475 62.7244 22.9702 62.7953 22.5928C62.8663 22.2155 62.9346 21.8382 63.0001 21.4608C63.067 21.0841 63.11 20.7037 63.129 20.3218C63.1765 19.727 63.1885 19.13 63.1649 18.5338C63.141 17.9472 63.129 17.3605 63.129 16.7738C63.129 16.4758 63.1434 16.1825 63.172 15.8938C63.2007 15.6052 63.2348 15.3212 63.2744 15.0418C63.3174 14.7625 63.3604 14.4785 63.4034 14.1898C63.4463 13.9012 63.4774 13.6078 63.4965 13.3098H63.3532C62.9726 13.2817 62.59 13.3053 62.216 13.3798C61.8394 13.4545 61.4698 13.5288 61.1075 13.6028C60.9564 13.6936 60.789 13.7554 60.6142 13.7848C60.3712 13.8408 60.1116 13.8898 59.8352 13.9318C59.5588 13.9738 59.2921 14.0072 59.0348 14.0318C58.7769 14.0598 58.5865 14.0788 58.4626 14.0878C58.539 13.7898 58.6127 13.4898 58.6837 13.1878C58.7538 12.8826 58.7882 12.5706 58.7861 12.2578C58.7861 11.7085 58.767 11.1588 58.7288 10.6088C58.6905 10.0588 58.6714 9.50916 58.6714 8.95982L59.8946 9.35082C60.2999 9.48416 60.7094 9.60316 61.1229 9.70782C61.5364 9.81249 61.9537 9.90082 62.3747 9.97282C62.7951 10.0411 63.2207 10.0746 63.6469 10.0728H70.2684C70.4415 10.0684 70.6134 10.0429 70.7801 9.99682C70.9801 9.94549 71.1469 9.89649 71.2806 9.84982C71.252 10.1765 71.2209 10.5005 71.1875 10.8218" fill="black"/>
<path d="M81.0486 12.3332L80.2124 12.2332C79.9395 12.2005 79.6631 12.1748 79.3833 12.1562C79.1036 12.1375 78.7914 12.1282 78.4468 12.1282C78 12.1275 77.5536 12.1532 77.11 12.2052C76.6711 12.2564 76.2295 12.2818 75.7876 12.2812C75.6272 12.2816 75.4671 12.2702 75.3085 12.2472C75.1509 12.2238 74.9912 12.1982 74.8295 12.1702C74.9041 12.5838 74.952 13.0016 74.9728 13.4212C74.9919 13.8265 75.0015 14.2478 75.0015 14.6852C75.0015 14.8525 75.0062 15.0272 75.0158 15.2092C75.0253 15.3912 75.0397 15.5702 75.0588 15.7462C75.6306 15.6622 76.1693 15.5955 76.675 15.5462C77.1806 15.4968 77.6788 15.4528 78.1694 15.4142C78.66 15.3722 79.1581 15.3255 79.6638 15.2742C80.1694 15.2228 80.7034 15.1562 81.2656 15.0742L81.4089 18.1742C81.1708 18.1655 80.9514 18.1588 80.7508 18.1542C80.5502 18.1495 80.3547 18.1378 80.1643 18.1192C79.9739 18.1005 79.7808 18.0725 79.585 18.0352C79.3895 17.9982 79.1684 17.9462 78.9197 17.8812C78.6592 17.8118 78.3941 17.7604 78.1264 17.7272C77.8357 17.6905 77.5402 17.6625 77.24 17.6432C76.9397 17.6238 76.6419 17.6098 76.3464 17.6012C76.0506 17.5922 75.7794 17.5822 75.5276 17.5732L75.3699 21.2622H76.4856C76.9524 21.2622 77.386 21.2482 77.7866 21.2202C78.1871 21.1922 78.5829 21.1622 78.9739 21.1302C79.3649 21.0975 79.7607 21.0672 80.1612 21.0392C80.5618 21.0112 80.9958 20.9972 81.4632 20.9972L81.5655 24.1552C81.2605 24.1365 80.9818 24.1205 80.7293 24.1072C80.4768 24.0938 80.2311 24.0822 79.9923 24.0722L79.2533 24.0482C79.0005 24.0392 78.7221 24.0342 78.4161 24.0342C78.0537 24.0342 77.6699 24.0365 77.2646 24.0412C76.8777 24.0436 76.492 24.0832 76.1131 24.1592C75.5773 24.2737 75.0309 24.3347 74.4825 24.3412C73.91 24.3505 73.3665 24.3552 72.852 24.3552C72.5565 24.3552 72.2706 24.3505 71.9942 24.3412C71.7179 24.3322 71.4415 24.3272 71.1652 24.3272C71.2334 24.1598 71.3242 23.9295 71.4374 23.6362C71.5507 23.3428 71.665 23.0328 71.7803 22.7062C71.895 22.3802 71.9949 22.0635 72.0802 21.7562C72.1542 21.5201 72.1975 21.2758 72.2092 21.0292C72.2092 20.3778 72.1901 19.7282 72.1519 19.0802C72.1137 18.4322 72.0707 17.7848 72.0229 17.1382C71.9751 16.4908 71.9322 15.8435 71.8939 15.1962C71.8557 14.5488 71.8366 13.8988 71.8366 13.2462C71.8366 12.6408 71.8414 12.0378 71.851 11.4372C71.8605 10.8365 71.8748 10.2285 71.8939 9.61316C72.141 9.70629 72.394 9.78345 72.6514 9.84416C72.9092 9.90452 73.1734 9.93473 73.4385 9.93416H73.6534C74.2826 9.8315 74.9093 9.7385 75.5337 9.65516C76.152 9.57163 76.7755 9.52954 77.3997 9.52916C77.7907 9.52916 78.1721 9.51283 78.544 9.48016C78.9159 9.44749 79.2854 9.40549 79.6525 9.35416C80.0196 9.30283 80.3867 9.24683 80.7539 9.18616C81.121 9.12549 81.4963 9.06716 81.8798 9.01116C81.8607 9.21583 81.8463 9.41849 81.8368 9.61916C81.8272 9.81983 81.8225 10.0175 81.8225 10.2122C81.8235 10.5797 81.845 10.9469 81.8869 11.3122C81.9299 11.6948 81.9641 12.0615 81.9893 12.4122C81.6481 12.3842 81.3335 12.3542 81.0456 12.3222" fill="black"/>
<path d="M93.2069 13.135C93.1783 13.4337 93.1377 13.7644 93.0851 14.127C93.0326 14.4897 92.9708 14.8647 92.8999 15.252C92.8316 15.6387 92.7528 16.002 92.6634 16.342C92.5886 16.6463 92.498 16.9467 92.3922 17.242C92.3289 17.4424 92.2325 17.6312 92.1066 17.801C91.9701 17.941 91.8129 18.1077 91.6348 18.301C91.4501 18.5001 91.2543 18.689 91.0483 18.867C90.851 19.0395 90.6379 19.1938 90.4116 19.328C90.2257 19.4453 90.0104 19.5103 89.7893 19.516C89.5607 19.5122 89.3331 19.4868 89.1096 19.44C88.8476 19.3887 88.5747 19.328 88.2908 19.258C88.0069 19.188 87.734 19.1137 87.4719 19.035C87.2051 18.9557 86.9714 18.889 86.7708 18.835C86.7899 19.8224 86.8281 20.812 86.8854 21.804C86.9427 22.796 86.981 23.7904 87.0001 24.787C86.6478 24.6659 86.2835 24.5815 85.9131 24.535C85.5412 24.4884 85.1693 24.455 84.7974 24.435C84.4255 24.415 84.0536 24.387 83.6817 24.351C83.3098 24.3183 82.9414 24.2551 82.5804 24.162C82.6568 23.846 82.7329 23.5227 82.8086 23.192C82.8842 22.8673 82.9369 22.5378 82.9662 22.206C82.9844 22.0291 83.0187 21.8541 83.0686 21.683C83.1164 21.5197 83.1665 21.3614 83.219 21.208C83.2716 21.0547 83.3242 20.8984 83.3767 20.739C83.4297 20.577 83.461 20.4089 83.4698 20.239C83.5272 19.6897 83.5613 19.14 83.5722 18.59C83.5831 18.04 83.5879 17.495 83.5865 16.955C83.5865 16.741 83.5794 16.525 83.565 16.306C83.5506 16.0874 83.5195 15.8701 83.4719 15.656C83.3975 15.2546 83.352 14.8486 83.3357 14.441C83.3214 14.0497 83.3143 13.6444 83.3143 13.225C83.3135 12.4425 83.2609 11.6609 83.1566 10.885C83.0515 10.0977 82.942 9.32204 82.8281 8.55804C83.0052 8.63068 83.1898 8.68465 83.3787 8.71904C83.593 8.76104 83.8124 8.79437 84.0369 8.81903C84.2614 8.8437 84.4831 8.8597 84.7022 8.86703C84.9212 8.87637 85.1167 8.88103 85.2887 8.88103C85.9465 8.88103 86.6043 8.86704 87.2621 8.83904C87.9199 8.81104 88.5777 8.79704 89.2355 8.79704C89.7077 8.80459 90.1729 8.90919 90.601 9.10403C91.0751 9.31029 91.5141 9.58614 91.9029 9.92204C92.2923 10.2541 92.6211 10.6484 92.8753 11.088C93.1219 11.5042 93.2525 11.9762 93.254 12.457C93.254 12.616 93.2397 12.843 93.211 13.142M89.6071 14.162C89.5975 13.948 89.5832 13.7224 89.5641 13.485C89.545 13.2477 89.5211 13.031 89.4925 12.835C89.4845 12.7147 89.4554 12.5967 89.4065 12.486C89.2702 12.3776 89.1077 12.3053 88.9346 12.276C88.6678 12.2014 88.3723 12.1247 88.0482 12.046C87.7241 11.9674 87.4119 11.8974 87.1116 11.836C86.8114 11.7754 86.5944 11.7264 86.4607 11.689C86.4893 12.4344 86.518 13.1774 86.5466 13.918C86.5753 14.6587 86.604 15.4014 86.6326 16.146C86.909 16.174 87.1877 16.209 87.4689 16.251C87.7551 16.293 88.0443 16.3138 88.3338 16.313C88.4249 16.3101 88.5147 16.2912 88.5989 16.257C88.7025 16.2182 88.8028 16.1714 88.8988 16.117C88.9979 16.0619 89.0935 16.0011 89.1854 15.935C89.2636 15.8798 89.3375 15.819 89.4065 15.753C89.4708 15.6843 89.5153 15.6001 89.5354 15.509C89.5646 15.3989 89.5861 15.287 89.5999 15.174C89.6138 15.0629 89.621 14.951 89.6214 14.839V14.58C89.6214 14.5134 89.6167 14.3747 89.6071 14.162Z" fill="black"/>
<path d="M103.427 14.2329C103.353 15.4482 103.316 16.6659 103.316 17.8859C103.316 18.1684 103.33 18.4508 103.359 18.7319C103.388 19.0127 103.402 19.2947 103.402 19.5769C103.402 19.6889 103.387 19.8682 103.359 20.1149C103.33 20.3616 103.292 20.6432 103.244 20.9599C103.196 21.2766 103.141 21.6049 103.079 21.9449C103.017 22.2849 102.949 22.6016 102.875 22.8949C102.81 23.1506 102.731 23.4027 102.638 23.6499C102.598 23.7971 102.516 23.9303 102.402 24.0339C102.23 24.1459 102.037 24.2649 101.822 24.3909C101.61 24.5153 101.39 24.6272 101.164 24.7259C100.944 24.8222 100.717 24.9038 100.485 24.9699C100.271 25.0336 100.05 25.0673 99.8265 25.0699C99.5583 25.0554 99.2935 25.0036 99.0404 24.9159C98.7067 24.8132 98.3611 24.6876 98.0035 24.5389C97.6459 24.3902 97.3071 24.2379 96.9871 24.0819C96.6678 23.9279 96.4221 23.7996 96.2502 23.6969C95.7202 23.4025 95.2748 22.9822 94.9554 22.4749C94.6426 21.9697 94.411 21.4207 94.2685 20.8469C94.1199 20.2538 94.0315 19.6479 94.0045 19.0379C93.9758 18.4186 93.9615 17.8339 93.9615 17.2839C93.9615 16.7439 93.9878 16.2062 94.0403 15.6709C94.0929 15.1356 94.1502 14.5976 94.2123 14.0569C94.2743 13.5169 94.3317 12.9766 94.3842 12.4359C94.4368 11.8952 94.463 11.3549 94.463 10.8149C94.4632 10.5579 94.444 10.3012 94.4057 10.0469C94.3675 9.79557 94.3197 9.53923 94.2624 9.2779C94.5586 9.3059 94.8524 9.33157 95.1437 9.3549C95.4351 9.37823 95.7288 9.3899 96.025 9.3899C96.5039 9.38873 96.9824 9.36069 97.458 9.3059C97.2988 9.86528 97.1714 10.4328 97.0762 11.0059C96.9663 11.6486 96.8752 12.3099 96.8029 12.9899C96.7306 13.6699 96.6753 14.3386 96.6371 14.9959C96.5989 15.6526 96.5797 16.2416 96.5797 16.7629C96.5797 16.9029 96.5821 17.1149 96.5869 17.3989C96.5917 17.6829 96.606 17.9972 96.6299 18.3419C96.6538 18.6866 96.6848 19.0406 96.723 19.4039C96.7575 19.7448 96.8125 20.0834 96.8878 20.4179C96.9461 20.6931 97.0347 20.9613 97.1519 21.2179C97.2202 21.3994 97.3589 21.5473 97.5378 21.6299C97.662 21.6579 97.7882 21.6812 97.9165 21.6999C98.0466 21.7189 98.178 21.7283 98.3095 21.7279C98.4424 21.7254 98.5745 21.7065 98.7026 21.6719C98.8484 21.6358 98.988 21.5792 99.1171 21.5039C99.2408 21.4337 99.3498 21.3415 99.4386 21.2319C99.5238 21.1264 99.5694 20.9954 99.5675 20.8609C99.567 20.3933 99.5909 19.9261 99.6392 19.4609C99.687 19.0014 99.7109 18.5398 99.7108 18.0779C99.7108 17.0906 99.6822 16.1056 99.6249 15.1229C99.5675 14.1402 99.5388 13.1402 99.5388 12.1229C99.5388 11.8252 99.5676 11.5283 99.6249 11.2359C99.682 10.9434 99.7012 10.6451 99.6821 10.3479C100.343 10.3946 101.008 10.4279 101.677 10.4479C102.346 10.4679 103.011 10.5146 103.672 10.5879C103.583 11.7986 103.501 13.0119 103.426 14.2279" fill="black"/>
<path d="M115.886 10.908C115.8 11.332 115.719 11.7534 115.642 12.172C115.529 12.834 115.454 13.5017 115.42 14.172C115.387 14.8334 115.323 15.5 115.228 16.172C115.123 17.0387 115.001 17.9004 114.863 18.757C114.726 19.6172 114.657 20.4865 114.659 21.357C114.659 21.9437 114.687 22.535 114.745 23.131C114.802 23.727 114.84 24.3184 114.859 24.905C114.154 24.8584 113.455 24.825 112.764 24.805C112.073 24.785 111.375 24.7407 110.67 24.672C110.718 24.188 110.763 23.7037 110.805 23.219C110.847 22.7344 110.869 22.25 110.869 21.766C110.875 21.2234 110.815 20.6819 110.69 20.153C110.575 19.6807 110.403 19.2232 110.178 18.79C109.948 18.352 109.681 17.9339 109.378 17.54C109.068 17.1347 108.727 16.7084 108.354 16.261C108.335 16.7637 108.328 17.269 108.333 17.777C108.338 18.2756 108.298 18.7737 108.211 19.265C108.106 19.8797 108.006 20.485 107.911 21.081C107.815 21.6865 107.767 22.2983 107.768 22.911C107.768 23.1468 107.78 23.3825 107.804 23.617C107.828 23.845 107.862 24.0754 107.906 24.308C107.62 24.308 107.327 24.3127 107.027 24.322C106.727 24.3314 106.429 24.336 106.133 24.336C105.853 24.336 105.573 24.3106 105.297 24.26C105.016 24.2087 104.737 24.1457 104.461 24.071C104.632 22.665 104.797 21.263 104.954 19.865C105.113 18.45 105.192 17.0275 105.191 15.604C105.19 15.0669 105.155 14.5302 105.088 13.997C105.02 13.457 104.939 12.9147 104.845 12.37C104.751 11.8254 104.648 11.2804 104.538 10.735C104.428 10.1904 104.33 9.65704 104.244 9.13504C104.668 9.19916 105.096 9.23258 105.524 9.23505H106.804C107.137 9.23505 107.469 9.24438 107.798 9.26305L108.792 9.31905C108.908 9.69471 108.999 10.0776 109.063 10.465C109.139 10.903 109.217 11.3434 109.299 11.786C109.381 12.2287 109.474 12.65 109.578 13.05C109.661 13.396 109.79 13.7296 109.964 14.042C110.198 14.4573 110.458 14.8581 110.742 15.242C111.023 15.6187 111.279 16.0129 111.507 16.422C111.688 16.7387 111.864 17.053 112.036 17.365C112.208 17.677 112.375 17.9914 112.537 18.308C112.594 17.5167 112.647 16.725 112.694 15.933C112.742 15.141 112.766 14.3494 112.766 13.558C112.772 12.8461 112.681 12.1365 112.495 11.448C112.303 10.7658 112.074 10.0942 111.808 9.43605C112.17 9.44538 112.53 9.46171 112.888 9.48505C113.245 9.50838 113.605 9.53371 113.968 9.56105C114.33 9.58905 114.692 9.61471 115.055 9.63805C115.417 9.66138 115.779 9.66838 116.142 9.65905C116.056 10.0784 115.97 10.5 115.884 10.924" fill="black"/>
<path d="M126.655 11.5499C126.177 12.0759 125.696 12.5949 125.211 13.1069C124.726 13.6189 124.239 14.1339 123.752 14.6519C123.266 15.1686 122.799 15.7019 122.351 16.2519C122.427 16.3452 122.564 16.5059 122.76 16.7339L123.426 17.5089C123.673 17.7976 123.931 18.1029 124.197 18.4249L124.942 19.3189C125.17 19.5936 125.361 19.8286 125.514 20.0239C125.615 20.1357 125.697 20.2631 125.756 20.4009C125.847 20.7326 125.969 21.0554 126.121 21.3649C126.269 21.6636 126.426 21.9522 126.593 22.2309C126.759 22.5096 126.921 22.7936 127.079 23.0829C127.24 23.3791 127.377 23.6874 127.488 24.0049C126.83 24.0329 126.208 24.0702 125.622 24.1169C125.005 24.1688 124.395 24.2763 123.798 24.4379C123.7 23.7933 123.547 23.1578 123.341 22.5379C123.123 21.9087 122.81 21.315 122.411 20.7769C122.015 20.2346 121.656 19.6666 121.339 19.0769C121.024 18.4902 120.7 17.9032 120.366 17.3159C120.347 17.6706 120.318 18.0199 120.28 18.3639C120.242 18.712 120.223 19.0618 120.223 19.4119C120.223 19.8578 120.247 20.3034 120.295 20.7469C120.342 21.1896 120.402 21.6272 120.474 22.0599C120.545 22.4926 120.619 22.9259 120.695 23.3599C120.771 23.7932 120.839 24.2286 120.9 24.6659H120.485C120.191 24.6752 119.897 24.6612 119.606 24.6239C119.315 24.5866 119.024 24.5426 118.734 24.4919L117.862 24.3379C117.566 24.2861 117.268 24.2557 116.968 24.2469C117.044 23.3902 117.147 22.5359 117.275 21.6839C117.404 20.8257 117.469 19.9594 117.469 19.0919C117.469 18.3092 117.434 17.4732 117.366 16.5839C117.298 15.6946 117.205 14.7909 117.088 13.8729C116.973 12.9556 116.847 12.0519 116.709 11.1619C116.571 10.2719 116.435 9.4359 116.3 8.6539C116.605 8.7099 116.917 8.75657 117.236 8.7939C117.557 8.83128 117.879 8.84998 118.201 8.8499C118.62 8.8499 119.045 8.84057 119.475 8.8219C119.896 8.80543 120.31 8.70576 120.691 8.5289V10.3029C120.691 10.6811 120.669 11.059 120.626 11.4349C120.583 11.8076 120.538 12.1779 120.49 12.5459C120.442 12.9139 120.397 13.2839 120.354 13.6559C120.311 14.0271 120.289 14.4003 120.289 14.7739C120.289 14.8739 120.289 14.9739 120.297 15.0739C120.302 15.1754 120.319 15.276 120.347 15.3739C120.738 14.7966 121.093 14.2376 121.412 13.6969C121.732 13.1562 122.032 12.6139 122.313 12.0699C122.594 11.5252 122.859 10.9639 123.107 10.3859C123.356 9.8079 123.599 9.18857 123.837 8.5279C124.168 8.69452 124.51 8.83918 124.861 8.9609C125.209 9.08223 125.557 9.1919 125.905 9.2899L126.956 9.5829C127.309 9.6809 127.662 9.79023 128.014 9.9109C127.595 10.4789 127.147 11.0262 126.67 11.5529" fill="black"/>
</svg>
