<svg width="18" height="18" viewBox="0 0 18 18" fill="none" xmlns="http://www.w3.org/2000/svg">
<g clip-path="url(#clip0_1_4863)">
<g clip-path="url(#clip1_1_4863)">
<path d="M9.00272 17.7158C7.79801 17.7158 6.66496 17.4873 5.60356 17.0301C4.54282 16.5724 3.61991 15.9513 2.83485 15.1669C2.04979 14.3824 1.42838 13.4606 0.970641 12.4011C0.512902 11.3416 0.284027 10.2089 0.284027 9.0029C0.284027 7.7969 0.512902 6.66385 0.970641 5.60375C1.42838 4.543 2.04946 3.62009 2.83388 2.83503C3.6183 2.04997 4.54056 1.42856 5.60066 0.970824C6.66076 0.513085 7.79381 0.28421 8.99982 0.28421H9.48399V8.16716C9.65059 8.27046 9.77292 8.39053 9.85106 8.52741C9.9292 8.66428 9.96827 8.82246 9.96827 9.00193C9.96827 9.26018 9.8717 9.48578 9.67865 9.67883C9.4856 9.87188 9.25936 9.96845 8.99982 9.96845C8.74028 9.96845 8.514 9.87188 8.32096 9.67883C8.12792 9.48578 8.03139 9.26083 8.03139 9.00388C8.03139 8.82568 8.07045 8.66654 8.14857 8.52644C8.2267 8.38635 8.34904 8.2669 8.51561 8.16812V5.1728C7.55235 5.28707 6.74662 5.70575 6.09843 6.42884C5.45023 7.15193 5.12613 8.00898 5.12613 9C5.12613 10.0652 5.50543 10.9772 6.26403 11.7358C7.02262 12.4944 7.93456 12.8737 8.99982 12.8737C10.065 12.8737 10.977 12.4944 11.7356 11.7358C12.4942 10.9772 12.8735 10.0652 12.8735 9C12.8735 8.41895 12.7563 7.88244 12.522 7.39048C12.2876 6.89852 11.969 6.46661 11.5662 6.09474L12.2576 5.40426C12.7476 5.84972 13.134 6.38074 13.4168 6.9973C13.6995 7.61387 13.8413 8.28143 13.8419 9C13.8419 10.3448 13.3716 11.4882 12.4309 12.4301C11.4902 13.3721 10.3482 13.8428 9.00465 13.8421C7.66113 13.8415 6.51679 13.3708 5.57161 12.4301C4.62901 11.4882 4.15771 10.3448 4.15771 9C4.15771 7.73395 4.57736 6.6448 5.41666 5.73255C6.25596 4.8203 7.28894 4.30703 8.51561 4.19276V1.26426C6.48322 1.3824 4.76458 2.18328 3.35973 3.66691C1.95487 5.15053 1.25245 6.92823 1.25245 9C1.25245 11.1628 2.00297 12.9947 3.50403 14.4958C5.00508 15.9969 6.83701 16.7473 8.99982 16.7473C11.1626 16.7473 12.9946 15.9969 14.4956 14.4958C15.9967 12.9947 16.7472 11.1628 16.7472 9C16.7472 7.88631 16.5293 6.84527 16.0935 5.87684C15.6577 4.90842 15.0605 4.06913 14.3019 3.35895L14.9924 2.66846C15.8382 3.46902 16.5035 4.41098 16.9883 5.49432C17.4732 6.57765 17.7156 7.74428 17.7156 8.99419C17.7156 10.2015 17.4871 11.3355 17.03 12.3963C16.5722 13.457 15.9511 14.3799 15.1667 15.165C14.3823 15.95 13.4604 16.5714 12.4009 17.0291C11.3415 17.4869 10.2087 17.7158 9.00272 17.7158Z" fill="black" stroke="black" stroke-width="0.6"/>
</g>
</g>
<defs>
<clipPath id="clip0_1_4863">
<rect width="18" height="18" fill="white"/>
</clipPath>
<clipPath id="clip1_1_4863">
<rect width="18" height="18" fill="white"/>
</clipPath>
</defs>
</svg>
