<svg width="18" height="18" viewBox="0 0 18 18" fill="none" xmlns="http://www.w3.org/2000/svg">
<g clip-path="url(#clip0_1_4896)">
<path d="M16.4697 12.8079C15.6434 12.1342 14.725 11.5821 13.7424 11.1683C13.0137 10.8358 12.3131 10.4447 11.6475 9.99906C12.731 8.76914 13.3728 7.21264 13.471 5.57648C13.5469 4.48548 13.3643 3.39197 12.9381 2.38482C12.4579 1.43329 11.384 0.299805 8.9998 0.299805C6.61555 0.299805 5.54174 1.43329 5.0625 2.3878C4.63601 3.39488 4.45341 4.48845 4.52958 5.57946C4.62796 7.2147 5.26975 8.77022 6.35306 9.99906C5.68732 10.4451 4.98636 10.8361 4.25715 11.1683C3.2746 11.5822 2.35622 12.1343 1.52988 12.8079C0.733188 13.7695 0.298076 14.9795 0.29997 16.2283C0.297069 16.4205 0.332423 16.6113 0.403975 16.7897C0.475526 16.9682 0.581846 17.1306 0.716748 17.2675C0.851649 17.4044 1.01244 17.5132 1.18976 17.5874C1.36708 17.6616 1.55739 17.6998 1.74961 17.6998H16.249C16.4414 17.7 16.6319 17.6618 16.8094 17.5876C16.9869 17.5134 17.1478 17.4046 17.2829 17.2675C17.4179 17.1304 17.5243 16.9679 17.5958 16.7893C17.6674 16.6107 17.7027 16.4196 17.6996 16.2273C17.7011 14.9789 17.266 13.7693 16.4697 12.8079ZM16.5065 16.5067C16.4728 16.541 16.4325 16.5682 16.3881 16.5868C16.3438 16.6054 16.2961 16.615 16.248 16.615H1.74961C1.70181 16.6148 1.65454 16.6051 1.61051 16.5865C1.56648 16.5679 1.52657 16.5408 1.49309 16.5067C1.42539 16.4373 1.38786 16.344 1.38869 16.2472C1.38744 15.2813 1.70827 14.3425 2.30043 13.5795C3.04963 12.9973 3.87069 12.5141 4.74334 12.1417C5.57774 11.7822 6.36833 11.3285 7.09975 10.7895L7.83352 10.0935L7.1962 9.31102C6.272 8.27456 5.71653 6.96153 5.61631 5.57648C5.54589 4.65594 5.68844 3.73156 6.03291 2.875C6.32681 2.36296 6.76474 1.9486 7.29223 1.68343C7.81973 1.41826 8.41352 1.31399 8.9998 1.38358C9.58556 1.31352 10.179 1.41705 10.7064 1.6813C11.2339 1.94556 11.6721 2.35891 11.9667 2.87003C12.3112 3.72693 12.4537 4.65164 12.3833 5.5725C12.2836 6.95846 11.7277 8.27238 10.8024 9.30903L10.1651 10.0925L10.8988 10.7885C11.6301 11.3273 12.4203 11.781 13.2543 12.1408C14.1278 12.5119 14.9495 12.9944 15.6992 13.5765C16.2986 14.3356 16.6203 15.2769 16.6109 16.2442C16.6119 16.2927 16.6032 16.3409 16.5853 16.386C16.5674 16.4311 16.5406 16.4721 16.5065 16.5067Z" fill="black" stroke="black" stroke-width="0.6" stroke-linejoin="round"/>
</g>
<defs>
<clipPath id="clip0_1_4896">
<rect width="18" height="18" fill="white"/>
</clipPath>
</defs>
</svg>
