<svg width="133" height="24" viewBox="0 0 133 24" fill="none" xmlns="http://www.w3.org/2000/svg">
<path d="M132.365 -0.000244141H108.365V23.9998H132.365V-0.000244141Z" fill="#00B67A"/>
<path d="M132.365 -0.000244141H120.365V23.9998H132.365V-0.000244141Z" fill="#CCD1D9"/>
<path d="M128.766 10.1175H122.346L120.372 4.01489L118.386 10.1175L111.966 10.1055L117.156 13.8819L115.169 19.9845L120.36 16.2081L125.55 19.9845L123.575 13.8819L128.766 10.1175Z" fill="white"/>
<path d="M124.018 15.2614L123.574 13.8813L120.371 16.2082L124.018 15.2614Z" fill="#CCD1D9"/>
<path d="M105.365 -0.000244141H81.3652V23.9998H105.365V-0.000244141Z" fill="#00B67A"/>
<path d="M101.764 10.1175H95.3438L93.3698 4.01489L91.3838 10.1175L84.9638 10.1061L90.1544 13.8825L88.1672 19.9851L93.3578 16.2087L98.5484 19.9851L96.5726 13.8825L101.764 10.1175Z" fill="white"/>
<path d="M97.0179 15.2614L96.5739 13.8813L93.3705 16.2082L97.0179 15.2614Z" fill="#00B67A"/>
<path d="M78.3652 -0.000244141H54.3652V23.9998H78.3652V-0.000244141Z" fill="#00B67A"/>
<path d="M74.7638 10.1175H68.3438L66.3698 4.01489L64.3838 10.1175L57.9638 10.1061L63.1544 13.8825L61.1672 19.9851L66.3578 16.2087L71.5484 19.9851L69.5726 13.8825L74.7638 10.1175Z" fill="white"/>
<path d="M70.0179 15.2614L69.5739 13.8813L66.3705 16.2082L70.0179 15.2614Z" fill="#00B67A"/>
<path d="M51.3652 -0.000244141H27.3652V23.9998H51.3652V-0.000244141Z" fill="#00B67A"/>
<path d="M47.7658 10.1175H41.3458L39.3718 4.01489L37.3858 10.1175L30.9658 10.1061L36.1564 13.8825L34.1692 19.9851L39.3598 16.2087L44.5504 19.9851L42.5746 13.8825L47.7658 10.1175Z" fill="white"/>
<path d="M43.0199 15.2614L42.5759 13.8813L39.3725 16.2082L43.0199 15.2614Z" fill="#00B67A"/>
<path d="M24.3652 -0.000244141H0.365173V23.9998H24.3652V-0.000244141Z" fill="#00B67A"/>
<path d="M20.7658 10.1175H14.3458L12.3718 4.01489L10.3858 10.1175L3.96576 10.1061L9.15636 13.8825L7.16916 19.9851L12.3598 16.2087L17.5504 19.9851L15.5746 13.8825L20.7658 10.1175Z" fill="white"/>
<path d="M16.0199 15.2614L15.5759 13.8813L12.3725 16.2082L16.0199 15.2614Z" fill="#00B67A"/>
</svg>
