<svg width="18" height="16" viewBox="0 0 18 16" fill="none" xmlns="http://www.w3.org/2000/svg">
<path d="M10.3906 0C10.8324 0 11.1855 0.369292 11.1855 0.817383C11.1854 1.26533 10.8323 1.63379 10.3906 1.63379H9.79395V2.91504C13.6829 3.32601 16.6093 6.72566 16.6094 10.873C16.6094 11.2176 16.8797 11.4929 17.2051 11.4932C17.6468 11.4932 17.9999 11.8616 18 12.3096C18 12.7575 17.6477 13.1268 17.2061 13.127H11.8809V14.3662H17.2061C17.6476 14.3664 17.9998 14.7348 18 15.1826C18 15.6306 17.6477 15.9998 17.2061 16H0.793945C0.3523 15.9998 0 15.6306 0 15.1826C0.000169111 14.7348 0.352406 14.3664 0.793945 14.3662H6.11914V13.127H0.793945C0.3523 13.1268 0 12.7575 0 12.3096C0.00010137 11.8617 0.352363 11.4934 0.793945 11.4932C1.11974 11.4932 1.39062 11.2177 1.39062 10.873C1.39069 6.72217 4.32069 3.32565 8.20605 2.91504V1.63379H7.60938C7.16767 1.63379 6.81462 1.26533 6.81445 0.817383C6.81445 0.369292 7.16756 0 7.60938 0H10.3906ZM7.70801 14.3662H10.292V13.127H7.70801V14.3662ZM9 4.50684C5.62835 4.50684 2.97956 7.2973 2.97949 10.873C2.97949 11.0878 2.95029 11.2962 2.89551 11.4932H15.1045C15.0497 11.2962 15.0205 11.0878 15.0205 10.873C15.0204 7.2973 12.3716 4.50684 9 4.50684Z" fill="black"/>
</svg>
