<svg width="18" height="18" viewBox="0 0 18 18" fill="none" xmlns="http://www.w3.org/2000/svg">
<path d="M9.00187 0C11.6578 0.000236317 13.8183 2.16037 13.8183 4.81543C13.8182 6.33942 13.1064 7.70021 11.998 8.58301C12.3116 8.692 12.6204 8.81875 12.9237 8.96289C13.3088 9.14583 13.473 9.60636 13.29 9.99121C13.107 10.376 12.6466 10.5392 12.2616 10.3564C11.2956 9.89737 10.2624 9.65245 9.18839 9.62695C9.12652 9.62932 9.06433 9.63085 9.00187 9.63086C8.93988 9.63086 8.87776 9.62929 8.81632 9.62695C5.3105 9.71279 2.27406 12.2274 1.55754 15.668C1.51707 15.8631 1.56576 16.0625 1.69035 16.2158C1.76317 16.3053 1.92377 16.4539 2.19035 16.4541H10.7802C11.2063 16.4543 11.5517 16.7996 11.5517 17.2256C11.5516 17.6515 11.2063 17.9969 10.7802 17.9971H2.19035C1.52899 17.9969 0.910278 17.7023 0.493082 17.1895C0.0738434 16.6741 -0.0889379 16.0041 0.0467934 15.3525C0.468906 13.3261 1.58661 11.4821 3.19425 10.1602C4.03487 9.46896 4.99061 8.93823 6.00871 8.58594C4.89819 7.70322 4.18453 6.34109 4.18449 4.81543C4.18449 2.16022 6.34573 0 9.00187 0ZM9.00187 1.54297C7.19703 1.54297 5.72843 3.0112 5.72843 4.81543C5.7285 6.5634 7.10669 7.99554 8.8339 8.08301C8.88967 8.08199 8.94598 8.08203 9.00187 8.08203C9.05797 8.08203 9.11397 8.08203 9.16984 8.08301C10.8964 7.9949 12.2743 6.56295 12.2743 4.81543C12.2743 3.01134 10.8065 1.54321 9.00187 1.54297Z" fill="black"/>
<path d="M14.6209 11.2248C15.0472 11.2248 15.3933 11.5702 15.3934 11.9963V13.8391H17.2371C17.6631 13.8392 18.0084 14.1847 18.0086 14.6105C18.0086 15.0365 17.6632 15.3818 17.2371 15.382H15.3934V17.2258C15.3931 17.6517 15.047 17.9973 14.6209 17.9973C14.195 17.997 13.8497 17.6515 13.8494 17.2258V15.382H12.0057C11.5796 15.3818 11.2342 15.0366 11.2342 14.6105C11.2344 14.1847 11.5797 13.8392 12.0057 13.8391H13.8494V11.9963C13.8495 11.5703 14.1949 11.2251 14.6209 11.2248Z" fill="black"/>
</svg>
