<svg width="121" height="128" viewBox="0 0 121 128" fill="none" xmlns="http://www.w3.org/2000/svg">
<path d="M60.5 0C72.3669 0 83.9672 3.51894 93.8342 10.1118C103.701 16.7047 111.391 26.0754 115.933 37.039C120.474 48.0025 121.662 60.0665 119.347 71.7054C117.032 83.3443 111.318 94.0352 102.926 102.426C94.5352 110.818 83.8443 116.532 72.2054 118.847C60.5665 121.162 48.5025 119.974 37.539 115.433C26.5754 110.891 17.2047 103.201 10.6118 93.3342C4.01894 83.4672 0.5 71.8669 0.5 60C0.5 44.087 6.82141 28.8258 18.0736 17.5736C29.3258 6.32141 44.587 0 60.5 0Z" fill="#00BAFC"/>
<path d="M85.4043 127.076L85.3963 127.076C83.62 127.061 82.1963 126.972 80.9159 126.798C79.2849 126.575 77.8926 126.213 76.6594 125.688L76.6515 125.685L76.6437 125.682C75.6142 125.221 75.3368 123.545 75.3351 122.627V122.204C70.4177 122.421 65.4396 122.53 60.5224 122.53C55.9511 122.53 51.3216 122.436 46.7455 122.248V122.625C46.7442 123.543 46.4677 125.219 45.4391 125.681L45.4304 125.685L45.4216 125.689C44.188 126.213 42.7957 126.575 41.165 126.798C39.8849 126.972 38.4617 127.061 36.6861 127.076L36.6782 127.076L36.6702 127.076C34.8939 127.061 33.4703 126.972 32.1899 126.798C30.5591 126.575 29.1668 126.213 27.9333 125.689L27.9254 125.685L27.9176 125.682C26.8876 125.221 26.6107 123.545 26.6095 122.626C26.6092 122.024 26.6089 121.421 26.6087 120.818C25.225 120.678 23.8291 120.528 22.4483 120.371C21.1585 120.222 19.9027 119.616 18.9105 118.664C17.9059 117.701 17.2875 116.496 17.1694 115.271C16.545 108.668 15.9211 102.066 15.2972 95.464C14.6832 88.9665 14.0692 82.4691 13.4548 75.9716C13.3575 74.9664 13.6316 74.0021 14.2477 73.1798L31.9124 45.0871C32.5157 44.1265 33.512 43.2303 34.7176 42.5642C35.9231 41.8981 37.2123 41.5312 38.3476 41.5312H85.9163C87.0639 41.5312 88.3381 41.9192 89.5042 42.6236C90.6702 43.328 91.6064 44.2753 92.1402 45.291L106.762 73.1322C107.395 73.9545 107.689 74.9589 107.591 75.9716C106.353 89.071 105.114 102.172 103.876 115.27C103.758 116.496 103.14 117.701 102.135 118.664C101.143 119.616 99.8871 120.222 98.5987 120.371C97.5522 120.49 96.5043 120.604 95.472 120.712V122.625C95.4704 123.544 95.1931 125.22 94.1645 125.681L94.1562 125.685L94.1478 125.688C92.9145 126.213 91.5225 126.575 89.892 126.798C88.6119 126.972 87.1884 127.061 85.4122 127.076L85.4043 127.076Z" fill="white"/>
<path d="M85.4047 126.153C88.3519 126.128 91.2978 125.897 93.7872 124.839C94.2113 124.649 94.5475 123.634 94.5493 122.625C94.5493 121.71 94.5493 120.794 94.5493 119.879C95.8641 119.745 97.1797 119.603 98.4931 119.454C100.75 119.193 102.757 117.256 102.958 115.183C104.196 102.085 105.434 88.9843 106.673 75.885C106.754 75.0451 106.492 74.2664 105.984 73.6368L91.3235 45.7207C90.3793 43.9241 87.9467 42.4546 85.9167 42.4546H38.3481C36.318 42.4546 33.7732 43.8606 32.6942 45.5787L15.0084 73.7051C14.536 74.3223 14.2953 75.0753 14.3742 75.885C15.6128 88.9843 16.85 102.084 18.0886 115.183C18.2887 117.256 20.2971 119.193 22.553 119.454C24.2116 119.643 25.8716 119.819 27.5321 119.983C27.5321 120.864 27.5326 121.745 27.533 122.625C27.5344 123.634 27.8692 124.649 28.2947 124.839C30.7845 125.897 33.7313 126.128 36.6786 126.153C39.6245 126.128 42.5709 125.897 45.0611 124.839C45.4843 124.649 45.8215 123.634 45.8228 122.625C45.8228 122.179 45.8228 121.732 45.8228 121.286C50.7207 121.5 55.6209 121.608 60.5229 121.608C65.7693 121.607 71.0174 121.485 76.2586 121.239C76.2586 121.701 76.2586 122.163 76.2586 122.625C76.2604 123.634 76.5953 124.649 77.0208 124.839C79.5101 125.897 82.4574 126.128 85.4047 126.153ZM85.4047 128C85.3994 128 85.394 128 85.3887 128C83.5724 127.984 82.1116 127.893 80.7915 127.713C79.0781 127.479 77.6085 127.095 76.2988 126.538C76.2883 126.534 76.2778 126.529 76.2674 126.525C75.5696 126.213 75.0533 125.576 74.7329 124.633C74.5808 124.186 74.4789 123.679 74.4358 123.167C69.8115 123.357 65.1403 123.454 60.5229 123.454C56.25 123.454 51.9261 123.371 47.6421 123.208C47.5971 123.706 47.4964 124.198 47.3478 124.634C47.0275 125.575 46.5128 126.211 45.8179 126.523C45.8063 126.528 45.7946 126.533 45.7829 126.538C44.4728 127.095 43.0032 127.479 41.2902 127.713C39.9704 127.893 38.5101 127.984 36.6945 128C36.6839 128 36.6733 128 36.6626 128C34.8464 127.984 33.3856 127.893 32.0656 127.713C30.3524 127.479 28.8828 127.095 27.5728 126.538C27.5622 126.534 27.5517 126.529 27.5413 126.525C26.8434 126.213 26.3271 125.576 26.0068 124.633C25.8014 124.029 25.6878 123.316 25.6869 122.628L25.6868 122.552C25.6867 122.252 25.6865 121.952 25.6864 121.652C24.572 121.536 23.4534 121.414 22.3444 121.288C22.3433 121.288 22.3421 121.288 22.341 121.288C20.8539 121.116 19.4088 120.421 18.272 119.331C17.1081 118.214 16.3904 116.804 16.251 115.36C16.2509 115.359 16.2508 115.358 16.2507 115.357C15.6238 108.727 14.9973 102.097 14.3708 95.4678C13.7594 88.9985 13.148 82.5288 12.5363 76.0595C12.4199 74.8523 12.7565 73.6484 13.4857 72.6585L31.1313 44.596C31.8161 43.5057 32.9315 42.4969 34.2716 41.7564C35.6115 41.0161 37.0592 40.6084 38.3481 40.6084H85.9167C87.2301 40.6084 88.6739 41.0436 89.9819 41.8337C91.2899 42.6239 92.3467 43.6993 92.9577 44.8618L107.544 72.6359C108.286 73.6322 108.629 74.8408 108.511 76.0613C107.272 89.1598 106.034 102.26 104.796 115.357C104.795 115.358 104.795 115.359 104.795 115.36C104.656 116.804 103.938 118.214 102.775 119.33C101.638 120.421 100.193 121.116 98.705 121.288C98.704 121.288 98.7029 121.288 98.7018 121.288C97.932 121.376 97.1608 121.461 96.3955 121.543V122.625C96.3955 122.627 96.3955 122.628 96.3955 122.629C96.3943 123.317 96.2802 124.029 96.0744 124.634C95.754 125.576 95.2386 126.212 94.5426 126.524C94.5315 126.529 94.5204 126.534 94.5092 126.538C93.1994 127.095 91.73 127.479 90.0172 127.713C88.6974 127.893 87.2368 127.984 85.4206 128C85.4153 128 85.41 128 85.4047 128Z" fill="white"/>
<path fill-rule="evenodd" clip-rule="evenodd" d="M106.22 74.1383L91.2956 45.7214C90.7305 44.7762 89.9421 43.9842 88.9995 43.4147C88.057 42.8452 86.9891 42.5157 85.8896 42.4551H38.3198C37.2034 42.5182 36.1155 42.8318 35.1368 43.3725C34.1581 43.9133 33.3136 44.6673 32.6659 45.5788L14.815 73.9685L61.3685 98.8325L106.22 74.1383Z" fill="#F8CC5D"/>
<path fill-rule="evenodd" clip-rule="evenodd" d="M45.8275 122.625C45.8275 123.633 45.4892 124.647 45.0651 124.84C42.5751 125.899 39.6286 126.13 36.6821 126.155C33.7347 126.13 30.7883 125.899 28.2992 124.84C27.8732 124.65 27.5381 123.636 27.5372 122.625C27.5372 120.399 27.5372 118.173 27.5372 115.946C27.5335 114.936 27.9212 114.103 28.3938 114.097H44.969C45.4421 114.103 45.8294 114.936 45.8271 115.946L45.8275 122.625Z" fill="black"/>
<path fill-rule="evenodd" clip-rule="evenodd" d="M94.5462 122.625C94.5462 123.633 94.2088 124.647 93.7842 124.84C91.2952 125.899 88.3492 126.13 85.4013 126.155C82.4549 126.13 79.5075 125.899 77.0184 124.84C76.5924 124.65 76.2573 123.636 76.2559 122.625V115.946C76.2559 114.936 76.6413 114.103 77.113 114.097H93.6882C94.1622 114.103 94.5485 114.936 94.5462 115.946C94.5462 118.173 94.5462 120.4 94.5462 122.625Z" fill="black"/>
<path d="M85.3799 127.077H85.3718C83.5946 127.061 82.1712 126.973 80.8921 126.798C79.2605 126.575 77.8682 126.212 76.6355 125.688L76.6278 125.684L76.6206 125.681C75.5898 125.221 75.3131 123.545 75.3117 122.627V122.204C70.3934 122.421 65.4152 122.531 60.4992 122.531C55.9284 122.531 51.2986 122.436 46.722 122.249V122.626C46.7207 123.544 46.4439 125.22 45.4136 125.681L45.4059 125.684L45.3983 125.688C44.1651 126.212 42.7728 126.575 41.1416 126.798C39.863 126.973 38.4396 127.061 36.6619 127.077H36.6538H36.6457C34.8681 127.061 33.4447 126.973 32.166 126.798C30.5344 126.575 29.1421 126.212 27.9094 125.688L27.9017 125.684L27.8945 125.681C26.8637 125.221 26.587 123.545 26.5856 122.627C26.5852 122.023 26.5852 121.421 26.5852 120.818C25.2015 120.678 23.8056 120.528 22.4241 120.37C21.1346 120.221 19.8789 119.615 18.8868 118.664C17.8822 117.701 17.2638 116.496 17.1462 115.271C16.5269 108.72 15.9076 102.17 15.2887 95.6211C14.6695 89.0714 14.0502 82.522 13.4309 75.9725C13.3213 74.8394 13.6959 73.7345 14.4851 72.8632C15.4492 71.7993 16.9294 71.1875 18.5466 71.1841H102.45C104.069 71.1875 105.549 71.7993 106.512 72.8628C107.302 73.7343 107.677 74.8392 107.568 75.9741L105.71 95.6211L103.852 115.27C103.734 116.495 103.116 117.7 102.112 118.664C101.12 119.615 99.8638 120.221 98.5757 120.37C97.5494 120.487 96.501 120.601 95.4481 120.711V122.626C95.4468 123.544 95.17 125.219 94.1401 125.681L94.1325 125.684L94.1243 125.688C92.8916 126.212 91.4993 126.575 89.8686 126.798C88.5899 126.973 87.1661 127.061 85.388 127.077H85.3799Z" fill="black"/>
<path d="M85.3812 126.154C88.3294 126.127 91.2753 125.897 93.7642 124.838C94.1883 124.648 94.525 123.633 94.5263 122.625C94.5263 121.709 94.5263 120.794 94.5263 119.878C95.8411 119.744 97.1572 119.603 98.471 119.453C100.727 119.192 102.735 117.256 102.934 115.182C104.173 102.083 105.411 88.9844 106.65 75.8853C106.85 73.8115 104.961 72.1121 102.451 72.1069C74.4832 72.1069 46.5164 72.1069 18.5497 72.1069C16.04 72.1121 14.1506 73.8115 14.3512 75.8853C15.5898 88.9844 16.8279 102.083 18.0665 115.182C18.2657 117.256 20.2741 119.192 22.53 119.453C24.1886 119.642 25.8486 119.818 27.5095 119.982C27.5095 120.863 27.5095 121.744 27.51 122.625C27.5113 123.633 27.8467 124.648 28.2722 124.838C30.761 125.897 33.7083 126.127 36.6551 126.154C39.6024 126.127 42.5483 125.897 45.0381 124.838C45.4626 124.648 45.7989 123.633 45.8002 122.625C45.8002 122.178 45.8002 121.732 45.8002 121.285C50.6987 121.5 55.5989 121.607 60.5005 121.607C65.7464 121.607 70.9937 121.484 76.2361 121.238C76.2361 121.7 76.2361 122.163 76.2361 122.625C76.2374 123.633 76.5728 124.648 76.9982 124.838C79.4871 125.897 82.4353 126.127 85.3812 126.154ZM85.3812 128C85.3758 128 85.3704 128 85.365 128C83.5477 127.983 82.0873 127.892 80.769 127.712C79.0544 127.478 77.5846 127.094 76.2753 126.537C76.2654 126.532 76.2555 126.528 76.2455 126.524C75.5474 126.212 75.0308 125.576 74.7104 124.633C74.558 124.185 74.4562 123.679 74.4129 123.166C69.7881 123.357 65.1168 123.454 60.5005 123.454C56.2277 123.454 51.9039 123.371 47.6198 123.208C47.5747 123.706 47.4738 124.197 47.3255 124.633C47.005 125.575 46.4889 126.211 45.7921 126.523C45.7818 126.528 45.7714 126.532 45.7606 126.537C44.4508 127.094 42.9814 127.478 41.2678 127.712C39.9494 127.892 38.4891 127.983 36.6713 128C36.6605 128 36.6497 128 36.6389 128C34.8211 127.983 33.3608 127.892 32.0424 127.712C30.3283 127.478 28.8585 127.094 27.5492 126.537C27.5393 126.532 27.5294 126.528 27.5194 126.524C26.8213 126.212 26.3048 125.576 25.9843 124.633C25.7783 124.028 25.6647 123.316 25.6638 122.628C25.6638 122.302 25.6634 121.976 25.6634 121.651C24.5496 121.535 23.431 121.414 22.3213 121.287C22.3199 121.287 22.3181 121.287 22.3181 121.287C20.8307 121.115 19.3857 120.42 18.249 119.33C17.0853 118.214 16.3677 116.803 16.2289 115.359L16.2284 115.356C15.5997 108.704 14.9705 102.052 14.3417 95.3995C13.7323 88.9528 13.123 82.5059 12.5131 76.059C12.3793 74.6636 12.8372 73.3085 13.8027 72.243C14.9403 70.9871 16.6692 70.2646 18.546 70.2607C18.546 70.2607 18.5483 70.2607 18.5497 70.2607H102.451C102.452 70.2607 102.455 70.2607 102.455 70.2607C104.331 70.2646 106.06 70.9871 107.198 72.2428C108.163 73.3081 108.621 74.6634 108.488 76.059L104.772 115.356L104.772 115.359C104.633 116.803 103.916 118.213 102.752 119.33C101.615 120.42 100.17 121.115 98.6829 121.287L98.6802 121.287C97.9207 121.374 97.1491 121.459 96.3725 121.542V122.625V122.628C96.3716 123.316 96.2575 124.028 96.0516 124.633C95.7307 125.575 95.215 126.211 94.5187 126.523C94.5083 126.527 94.4979 126.532 94.4871 126.537C93.1778 127.094 91.708 127.478 89.9943 127.712C88.6764 127.892 87.2156 127.983 85.3974 128C85.392 128 85.3866 128 85.3812 128Z" fill="white"/>
<path fill-rule="evenodd" clip-rule="evenodd" d="M102.96 115.182C102.76 117.256 100.752 119.193 98.4956 119.453C73.2637 122.325 47.7873 122.325 22.5554 119.453C20.299 119.192 18.2908 117.255 18.0914 115.182C16.853 102.084 15.6147 88.9845 14.3765 75.8851C14.1757 73.8118 16.0644 72.1115 18.5765 72.1069H102.476C104.986 72.1115 106.875 73.8118 106.676 75.8851C105.437 88.9845 104.198 102.084 102.96 115.182Z" fill="#F59964"/>
<path fill-rule="evenodd" clip-rule="evenodd" d="M48.1376 90.8553C51.4094 91.8222 54.7302 92.6147 58.086 93.2295C58.2843 94.8487 58.1268 96.4917 57.6245 98.0438C56.7276 100.824 54.7692 103.138 52.1752 104.482C49.5813 105.826 46.5615 106.092 43.7728 105.221C42.401 104.779 41.1303 104.07 40.0342 103.134C38.9381 102.199 38.0383 101.055 37.3867 99.7697C36.7351 98.4842 36.3447 97.0824 36.238 95.6452C36.1314 94.2079 36.3106 92.7638 36.7653 91.3962C37.2709 89.8611 38.0988 88.4518 39.1934 87.2627C42.1043 88.6287 45.0905 89.8282 48.1376 90.8553Z" fill="white"/>
<path fill-rule="evenodd" clip-rule="evenodd" d="M39.1862 87.263C38.8278 88.9494 38.9079 90.6995 39.4188 92.3461C39.9297 93.9928 40.8544 95.4809 42.1045 96.6682C43.0564 97.5681 44.1777 98.2699 45.4031 98.7328C46.6286 99.1957 47.9338 99.4106 49.243 99.3648C50.5522 99.319 51.8393 99.0136 53.0294 98.4662C54.2195 97.9188 55.2891 97.1404 56.1758 96.1762C56.9775 95.3126 57.6218 94.3154 58.0797 93.2297C57.826 91.1707 56.9876 89.2276 55.6637 87.6304C54.3398 86.0332 52.5859 84.8489 50.6097 84.2177C48.6129 83.589 46.4783 83.5415 44.4555 84.0807C42.4327 84.6199 40.605 85.7237 39.1862 87.263Z" fill="black"/>
<path fill-rule="evenodd" clip-rule="evenodd" d="M75.2025 90.6511C79.2848 92.2817 84.838 94.0106 84.838 94.0106C84.9155 95.6391 84.6412 97.2652 84.034 98.7783C82.941 101.488 80.8222 103.657 78.1384 104.812C75.4546 105.968 72.4231 106.017 69.7033 104.949C68.3667 104.41 67.1501 103.612 66.1237 102.6C65.0974 101.589 64.2816 100.384 63.7235 99.0554C63.1654 97.7267 62.8761 96.3007 62.8722 94.8596C62.8684 93.4185 63.15 91.991 63.701 90.6594C64.3141 89.1643 65.2402 87.8178 66.4171 86.7104C66.4171 86.7104 71.1137 89.0177 75.2025 90.6511Z" fill="white"/>
<path fill-rule="evenodd" clip-rule="evenodd" d="M66.415 86.7116C65.9376 88.3682 65.8929 90.1195 66.2851 91.7983C66.6773 93.4771 67.4933 95.0274 68.6553 96.301C69.5406 97.2666 70.609 98.0466 71.7983 98.5957C72.9877 99.1449 74.2743 99.4522 75.5835 99.4998C76.8926 99.5474 78.1982 99.3344 79.4243 98.8732C80.6504 98.4119 81.7726 97.7115 82.7257 96.8128C83.5875 96.0092 84.3018 95.0609 84.8363 94.0108C84.7303 91.9387 84.0325 89.9403 82.8256 88.2525C81.6187 86.5648 79.9534 85.2583 78.0268 84.4879C76.0798 83.7184 73.954 83.5189 71.8978 83.9127C69.8416 84.3065 67.9399 85.2772 66.415 86.7116Z" fill="black"/>
<path fill-rule="evenodd" clip-rule="evenodd" d="M77.1127 78.3132C75.9806 77.5273 74.6556 77.065 73.2803 76.9762C71.9049 76.8874 70.5315 77.1754 69.3077 77.8092C68.0177 78.4669 69.1383 80.4081 70.4227 79.7541C72.3021 78.7955 74.2535 79.108 75.9723 80.2429C77.1797 81.0414 78.3127 79.1061 77.1127 78.3132Z" fill="black"/>
<path fill-rule="evenodd" clip-rule="evenodd" d="M51.4085 77.7777C50.1741 77.1652 48.7959 76.901 47.4224 77.0136C46.0489 77.1263 44.7322 77.6115 43.6141 78.417C42.4339 79.256 43.8254 81.0131 44.9987 80.1777C46.7193 78.957 48.6961 78.9814 50.5611 79.8547C51.8747 80.468 52.7114 78.387 51.4085 77.7777Z" fill="black"/>
<path fill-rule="evenodd" clip-rule="evenodd" d="M87.4423 59.7111C87.4271 60.3136 87.1732 60.8855 86.7365 61.3009C86.2998 61.7163 85.716 61.9413 85.1134 61.9265H37.6839C37.0812 61.9415 36.4972 61.7165 36.0604 61.3011C35.6235 60.8857 35.3694 60.3138 35.3541 59.7111V58.6302C35.3693 58.0274 35.6233 57.4555 36.0602 57.04C36.4971 56.6246 37.0812 56.3997 37.6839 56.4148H85.1134C85.716 56.3999 86.2998 56.6249 86.7365 57.0403C87.1732 57.4558 87.4271 58.0276 87.4423 58.6302V59.7111Z" fill="black"/>
<path d="M48.1286 109.922C48.0529 111.637 46.011 112.938 43.5699 112.829C41.1289 112.72 39.2098 111.244 39.2859 109.528C39.3621 107.812 41.4035 106.51 43.8455 106.621C46.2875 106.731 48.2042 108.206 48.1286 109.922Z" fill="#ED6F82"/>
<path d="M83.2691 109.922C83.1929 111.637 81.1516 112.938 78.7105 112.829C76.2694 112.72 74.3517 111.244 74.4265 109.528C74.5013 107.812 76.544 106.51 78.986 106.621C81.428 106.731 83.3448 108.206 83.2691 109.922Z" fill="#ED6F82"/>
<path d="M55.4205 90.0743C54.6043 88.7166 53.3926 87.6407 51.9479 86.9908C51.2731 86.7083 50.9122 87.781 51.5787 88.0607C52.7535 88.5992 53.7394 89.4785 54.4084 90.5843C54.8044 91.1857 55.8211 90.6868 55.4205 90.0743Z" fill="white"/>
<path d="M50.1827 86.1995C50.0087 86.1534 49.8361 86.1012 49.6621 86.0541C49.5199 86.0079 49.3653 86.0187 49.2309 86.0842C49.0965 86.1497 48.9928 86.2649 48.9417 86.4054C48.8942 86.5472 48.9044 86.7021 48.9701 86.8364C49.0358 86.9708 49.1518 87.0739 49.2929 87.1235C49.4669 87.1697 49.6395 87.2237 49.8135 87.2694C49.8837 87.2936 49.9581 87.3038 50.0323 87.2993C50.1064 87.2948 50.179 87.2758 50.2458 87.2432C50.3126 87.2107 50.3724 87.1653 50.4217 87.1097C50.471 87.0541 50.5088 86.9893 50.533 86.9191C50.5573 86.8488 50.5675 86.7745 50.563 86.7003C50.5585 86.6261 50.5394 86.5536 50.5069 86.4868C50.4744 86.4199 50.429 86.3602 50.3734 86.3109C50.3178 86.2616 50.253 86.2238 50.1827 86.1995Z" fill="white"/>
<path d="M56.1232 92.083C56.0554 91.9492 55.9374 91.8477 55.795 91.8006C55.6525 91.7536 55.4973 91.7648 55.3631 91.8319C55.2317 91.9018 55.1323 92.0197 55.0855 92.161C55.0388 92.3023 55.0483 92.4562 55.112 92.5906V92.5722C55.1061 92.7202 55.1585 92.8647 55.2579 92.9745C55.3573 93.0844 55.4958 93.1509 55.6437 93.1599C55.7916 93.1688 55.9371 93.1194 56.049 93.0223C56.1609 92.9252 56.2303 92.7882 56.2423 92.6405C56.2409 92.4485 56.2004 92.2588 56.1232 92.083Z" fill="white"/>
<path d="M55.1046 92.5892C55.1073 92.5979 55.1089 92.6069 55.1092 92.6161C55.1098 92.6076 55.1098 92.5991 55.1092 92.5906C55.0509 92.4405 55.0953 92.5512 55.1046 92.5892Z" fill="white"/>
<path d="M55.1109 92.6162C55.1109 92.6996 55.117 92.6588 55.1109 92.6162V92.6162Z" fill="white"/>
<path d="M81.7022 89.3722C80.8858 88.0144 79.6742 86.9384 78.2296 86.2882C77.5548 86.0057 77.1929 87.0779 77.8603 87.3585C79.0357 87.8966 80.0221 88.7758 80.6914 89.8817C81.0856 90.484 82.1014 89.9833 81.7022 89.3722Z" fill="white"/>
<path d="M76.4631 85.4989C76.2891 85.4528 76.1178 85.4002 75.9434 85.3536C75.8013 85.3072 75.6467 85.318 75.5123 85.3835C75.378 85.449 75.2744 85.5643 75.2234 85.7048C75.1754 85.8466 75.1854 86.0017 75.2512 86.1362C75.3169 86.2707 75.4332 86.3738 75.5746 86.423C75.7486 86.4691 75.9212 86.5231 76.0939 86.5688C76.236 86.6155 76.3907 86.605 76.5252 86.5395C76.6598 86.4741 76.7635 86.3587 76.8143 86.218C76.8623 86.0761 76.8524 85.9209 76.7866 85.7862C76.7208 85.6516 76.6046 85.5483 76.4631 85.4989Z" fill="white"/>
<path d="M82.4038 91.381C82.3363 91.2473 82.2184 91.1458 82.0762 91.0989C81.934 91.0519 81.7789 91.0632 81.645 91.1304C81.5133 91.1998 81.4135 91.3176 81.3667 91.4589C81.3199 91.6003 81.3296 91.7544 81.3939 91.8887C81.3934 91.8826 81.3934 91.8764 81.3939 91.8702C81.3848 92.0199 81.4354 92.1671 81.5348 92.2795C81.6342 92.3918 81.7741 92.4601 81.9238 92.4693C82.0735 92.4785 82.2207 92.4278 82.3331 92.3285C82.4454 92.2291 82.5137 92.0892 82.5229 91.9395C82.5222 91.7471 82.4816 91.5569 82.4038 91.381Z" fill="white"/>
<path d="M81.3867 91.8869C81.3891 91.8958 81.3904 91.905 81.3904 91.9143C81.391 91.9058 81.391 91.8973 81.3904 91.8888C81.3316 91.7382 81.3774 91.8489 81.3867 91.8869Z" fill="white"/>
<path d="M81.3922 91.9136C81.3922 91.9965 81.3991 91.9562 81.3922 91.9136V91.9136Z" fill="white"/>
<path fill-rule="evenodd" clip-rule="evenodd" d="M65.0991 105.719C64.7839 104.011 62.053 104.133 62.3719 105.862C62.6253 107.233 62.5856 108.741 60.8862 108.811C59.2662 108.877 59.0502 107.393 58.9662 106.108C58.8541 104.352 56.1259 104.493 56.2404 106.251C56.4342 109.265 57.8096 111.432 61.0275 111.538C64.2292 111.644 65.6031 108.451 65.0991 105.719Z" fill="black"/>
<path d="M24.1494 88.9995C22.6619 88.9995 22.6619 91.3072 24.1494 91.3072C25.6369 91.3072 25.6369 88.9995 24.1494 88.9995Z" fill="white" fill-opacity="0.5"/>
<path d="M92.1807 95.7056C90.6931 95.7056 90.6931 98.0133 92.1807 98.0133C93.6682 98.0133 93.6659 95.7056 92.1807 95.7056Z" fill="white" fill-opacity="0.5"/>
<path d="M57.6389 9.20606C57.8055 11.5401 57.8803 13.8787 57.9984 16.2154C58.0746 17.7007 60.3739 17.523 60.2983 16.0368C60.1801 13.7005 60.1053 11.3614 59.9387 9.02791C59.834 7.54545 57.5327 7.72037 57.6389 9.20606Z" fill="white"/>
<path d="M74.4109 10.9082C73.3392 12.9879 72.1859 15.0242 71.0712 17.0803C70.3614 18.3879 72.4176 19.4342 73.1269 18.1248C74.2429 16.0687 75.3949 14.0323 76.4676 11.9527C77.1488 10.6317 75.094 9.5845 74.4109 10.9082Z" fill="white"/>
<path d="M41.3307 15.5373C42.9894 17.1873 44.5827 18.9015 46.2068 20.5856C47.2388 21.6555 48.8556 20.0115 47.8222 18.9402C46.1971 17.2565 44.6048 15.5419 42.9461 13.8924C41.8933 12.8442 40.2742 14.4869 41.3307 15.5373Z" fill="white"/>
<path d="M86.8838 21.4789C85.099 22.9918 83.2556 24.4327 81.4404 25.9096C80.2865 26.8475 81.7884 28.5981 82.9427 27.6598C84.7579 26.1829 86.6013 24.7429 88.3861 23.229C89.5196 22.2676 88.021 20.5147 86.8838 21.4789Z" fill="white"/>
<path d="M31.6069 27.0469C33.6603 28.168 35.6684 29.3689 37.6992 30.532C38.9915 31.2704 40.083 29.2396 38.793 28.5012C36.7623 27.3381 34.755 26.1372 32.7007 25.0161C31.3955 24.3035 30.2993 26.3329 31.6069 27.0469Z" fill="white"/>
<path fill-rule="evenodd" clip-rule="evenodd" d="M34.0286 74.9092H25.2662C23.7792 74.9092 23.7792 77.2169 25.2662 77.2169H34.0286C35.5156 77.2159 35.5156 74.9092 34.0286 74.9092Z" fill="white" fill-opacity="0.5"/>
<path fill-rule="evenodd" clip-rule="evenodd" d="M39.1025 74.9092C37.615 74.9092 37.615 77.2169 39.1025 77.2169C40.5901 77.2169 40.5887 74.9092 39.1025 74.9092Z" fill="white" fill-opacity="0.5"/>
<path fill-rule="evenodd" clip-rule="evenodd" d="M32.6456 67.6328H26.0257C25.7981 67.6381 25.5816 67.7321 25.4226 67.8949C25.2635 68.0577 25.1744 68.2763 25.1744 68.504C25.1744 68.7316 25.2635 68.9502 25.4226 69.113C25.5816 69.2758 25.7981 69.3699 26.0257 69.3751H32.6456C32.8731 69.3699 33.0896 69.2758 33.2487 69.113C33.4078 68.9502 33.4969 68.7316 33.4969 68.504C33.4969 68.2763 33.4078 68.0577 33.2487 67.8949C33.0896 67.7321 32.8731 67.6381 32.6456 67.6328Z" fill="white" fill-opacity="0.5"/>
<path fill-rule="evenodd" clip-rule="evenodd" d="M36.4788 67.6328C36.2513 67.6381 36.0348 67.7321 35.8757 67.8949C35.7166 68.0577 35.6275 68.2763 35.6275 68.504C35.6275 68.7316 35.7166 68.9502 35.8757 69.113C36.0348 69.2758 36.2513 69.3699 36.4788 69.3751C36.7064 69.3699 36.9229 69.2758 37.082 69.113C37.2411 68.9502 37.3302 68.7316 37.3302 68.504C37.3302 68.2763 37.2411 68.0577 37.082 67.8949C36.9229 67.7321 36.7064 67.6381 36.4788 67.6328Z" fill="white" fill-opacity="0.5"/>
<path fill-rule="evenodd" clip-rule="evenodd" d="M20.501 75.0635C19.0134 75.0635 19.0134 77.3712 20.501 77.3712C21.9885 77.3712 21.9899 75.0635 20.501 75.0635Z" fill="white" fill-opacity="0.5"/>
<path fill-rule="evenodd" clip-rule="evenodd" d="M100.525 90.2301C100.202 94.324 99.3053 98.3445 98.8853 102.427C98.8853 102.733 99.0069 103.027 99.2233 103.243C99.4397 103.459 99.7331 103.581 100.039 103.581C100.343 103.575 100.634 103.452 100.849 103.237C101.064 103.022 101.187 102.731 101.193 102.427C101.614 98.3445 102.511 94.3258 102.833 90.2301C102.947 88.7468 100.641 88.7574 100.525 90.2301Z" fill="white" fill-opacity="0.5"/>
<path fill-rule="evenodd" clip-rule="evenodd" d="M102.282 85.1821C100.795 85.1821 100.795 87.4898 102.282 87.4898C103.769 87.4898 103.768 85.1821 102.282 85.1821Z" fill="white" fill-opacity="0.5"/>
<path fill-rule="evenodd" clip-rule="evenodd" d="M99.2109 105.271C97.7247 105.271 97.7247 107.579 99.2109 107.579C100.697 107.579 100.699 105.271 99.2109 105.271Z" fill="white" fill-opacity="0.5"/>
<path fill-rule="evenodd" clip-rule="evenodd" d="M89.2563 51.0379C91.1947 54.1556 92.6781 57.5239 94.5377 60.6841C94.6999 60.9038 94.9426 61.0503 95.2127 61.0913C95.4827 61.1323 95.758 61.0645 95.9781 60.9029C96.1938 60.7375 96.3371 60.495 96.378 60.2263C96.4188 59.9576 96.3541 59.6835 96.1974 59.4615C94.3369 56.2995 92.854 52.9325 90.9164 49.8153C90.2135 48.6864 88.5594 49.9164 89.2563 51.0379Z" fill="white" fill-opacity="0.5"/>
<path fill-rule="evenodd" clip-rule="evenodd" d="M87.8539 46.4678C86.7836 47.2552 88.0048 48.9139 89.0752 48.1293C90.1455 47.3447 88.9242 45.6799 87.8539 46.4678Z" fill="white" fill-opacity="0.5"/>
<path fill-rule="evenodd" clip-rule="evenodd" d="M96.2836 62.5568C95.2129 63.3442 96.4355 65.003 97.5058 64.2184C98.5761 63.4337 97.3544 61.7685 96.2836 62.5568Z" fill="white" fill-opacity="0.5"/>
<path d="M68.0787 56.4147L62.9429 57.7917C59.6707 58.669 56.143 57.6374 53.0096 54.8868C50.0561 52.2903 47.7779 48.4293 46.5943 44.0146C45.4111 39.6016 45.4523 35.1194 46.7103 31.3937C48.0471 27.4433 50.5855 24.7848 53.858 23.9073L58.9937 22.5304C62.266 21.653 65.7938 22.6851 68.9273 25.4364C71.8811 28.0336 74.1591 31.894 75.3422 36.3068C76.5259 40.7214 76.4847 45.2042 75.2265 48.9295C73.889 52.8794 71.3506 55.5374 68.0787 56.4147ZM59.0356 54.7093C59.3449 54.7885 59.6526 54.8452 59.9579 54.8793C59.809 54.7836 59.6606 54.6842 59.5129 54.5813L59.0356 54.7093ZM55.0767 52.4839L56.6818 52.0535C56.1692 51.484 55.683 50.8731 55.2267 50.2253L53.3935 50.7168C53.9251 51.3726 54.4878 51.9636 55.0767 52.4839ZM51.5385 47.9273L53.5348 47.392C53.0165 46.3618 52.5667 45.2801 52.1905 44.1588L50.1275 44.7119C50.5168 45.8408 50.9891 46.9172 51.5385 47.9273ZM49.3052 41.645L51.3681 41.0918C51.1328 39.9321 50.981 38.7705 50.9145 37.6198L48.9182 38.1551C48.9477 39.3036 49.0773 40.472 49.3052 41.645ZM49.1289 34.8093L50.9619 34.3179C51.0332 33.5282 51.1486 32.7564 51.3073 32.0075L49.7024 32.4378C49.4528 33.184 49.261 33.977 49.1289 34.8093ZM52.0167 28.5304L52.4941 28.4024C52.5706 28.2393 52.6496 28.0789 52.7309 27.9213C52.4834 28.1036 52.245 28.3069 52.0167 28.5304Z" fill="white"/>
<path d="M67.8376 55.5233C70.803 54.7282 73.1147 52.2819 74.3498 48.6344C75.5498 45.0815 75.5859 40.7882 74.4485 36.5462C73.3118 32.3064 71.1327 28.607 68.3161 26.1304C65.4217 23.5889 62.1962 22.6272 59.2308 23.4223L54.095 24.7993C51.1296 25.5944 48.8176 28.0408 47.5829 31.6893C46.3831 35.2428 46.3472 39.536 47.4839 43.7758C48.6213 48.0179 50.8002 51.7173 53.6166 54.1933C56.5106 56.7337 59.7363 57.6953 62.7018 56.9002L67.8376 55.5233ZM56.2474 54.5008L59.6945 53.5766C60.8041 54.4005 61.9492 55.0025 63.1023 55.3672C62.8609 55.4649 62.6121 55.5478 62.3575 55.6161C60.3491 56.1546 58.2269 55.7071 56.2474 54.5008ZM51.8367 50.1781L55.6189 49.164C56.4543 50.4353 57.4049 51.5689 58.4481 52.5355L54.8454 53.5014C53.76 52.6104 52.7411 51.4879 51.8367 50.1781ZM48.95 44.0716L52.8023 43.0387C53.3276 44.8071 54.0357 46.4708 54.8955 47.9827L51.0857 49.0042C50.2168 47.5331 49.4878 45.8727 48.95 44.0716ZM47.9875 37.4485L51.7972 36.4271C51.8087 38.1647 52.0279 39.9594 52.4582 41.7551L48.6059 42.788C48.1701 40.9577 47.9706 39.1553 47.9875 37.4485ZM48.9926 31.672L52.5953 30.706C52.1756 32.0649 51.92 33.5236 51.832 35.0401L48.0498 36.0542C48.1778 34.4682 48.499 32.9882 48.9926 31.672ZM54.4392 26.0829C54.6937 26.0146 54.9511 25.9636 55.2086 25.9258C54.3932 26.8207 53.7024 27.9131 53.1537 29.1811L49.7066 30.1053C50.8171 28.0705 52.4308 26.6214 54.4392 26.0829ZM68.3157 57.3066L63.1799 58.6836C61.3694 59.1691 59.4937 59.1298 57.6051 58.5671C55.7921 58.0268 54.0404 57.0221 52.3986 55.5809C49.3092 52.865 46.9308 48.8426 45.7005 44.254C44.4707 39.667 44.518 34.995 45.8336 31.0987C46.5344 29.0277 47.5485 27.2811 48.8481 25.906C50.2017 24.4738 51.8062 23.5014 53.6169 23.0159L58.7526 21.6389C60.5633 21.1535 62.439 21.1928 64.3275 21.7557C66.1406 22.2962 67.8924 23.3013 69.5344 24.743C72.6239 27.4595 75.0021 31.4812 76.2319 36.068C77.4622 40.6566 77.415 45.3292 76.0991 49.2252C75.398 51.2958 74.3838 53.0421 73.0844 54.4168C71.7307 55.8489 70.1263 56.8212 68.3157 57.3066ZM52.0135 46.8439L52.2238 46.7875C52.002 46.2917 51.795 45.7863 51.6032 45.2718L51.3435 45.3414C51.5485 45.856 51.772 46.3573 52.0135 46.8439ZM50.0429 40.4911L50.3027 40.4215C50.2113 39.88 50.1376 39.3386 50.0817 38.7986L49.8713 38.855C49.9056 39.3969 49.9629 39.9429 50.0429 40.4911Z" fill="white"/>
<path d="M51.7958 36.4267L47.9861 37.4482C47.9755 39.2464 48.1834 41.0394 48.6052 42.7875L52.4582 41.7545C52.0354 40.0095 51.8132 38.222 51.7958 36.4267Z" fill="#F8CC5D"/>
<path d="M52.5891 30.7066L48.9849 31.673C48.4694 33.0829 48.1521 34.5576 48.0422 36.0547L51.8243 35.0407C51.904 33.5705 52.1608 32.1153 52.5891 30.7066Z" fill="#F8CC5D"/>
<path d="M52.7999 43.0382L48.9469 44.0713C49.4562 45.796 50.1731 47.4524 51.0819 49.0042L54.8908 47.983C54.008 46.4196 53.3065 44.7607 52.7999 43.0382Z" fill="#F8CC5D"/>
<path d="M55.199 25.9254C54.9394 25.9629 54.6823 26.0159 54.4291 26.084C52.4214 26.6223 50.8091 28.0716 49.6979 30.1052L53.1457 29.1808C53.6449 27.9893 54.3388 26.8892 55.199 25.9254Z" fill="#F8CC5D"/>
<path d="M55.6118 49.1652L51.8297 50.1792C52.6739 51.4206 53.6863 52.5387 54.8381 53.5016L58.4418 52.5354C57.3664 51.5299 56.4162 50.3983 55.6118 49.1652Z" fill="#F8CC5D"/>
<path d="M59.6915 53.5771L56.2438 54.5015C58.2233 55.7069 60.3444 56.1547 62.3529 55.6162C62.6063 55.5486 62.8554 55.4658 63.0989 55.3684C61.8716 54.9644 60.7201 54.359 59.6915 53.5771Z" fill="#F8CC5D"/>
<path d="M59.6006 24.6997C59.3472 24.7673 59.0981 24.8501 58.8546 24.9475C58.2517 25.1917 57.6866 25.5203 57.176 25.9233C53.5714 28.7401 52.1119 35.2691 53.9294 42.0482C55.747 48.8273 60.2769 53.7499 64.8075 54.387C65.4516 54.4805 66.1056 54.4821 66.7501 54.3918C67.0096 54.3544 67.2667 54.3014 67.5199 54.2332C72.83 52.8095 75.3742 45.0272 73.1911 36.8848C71.008 28.7423 64.9106 23.276 59.6006 24.6997Z" fill="#F8CC5D"/>
<path d="M51.8193 36.4199L48.0095 37.4413C47.9989 39.2396 48.2068 41.0325 48.6287 42.7807L52.4817 41.7476C52.0589 40.0027 51.8366 38.2152 51.8193 36.4199Z" fill="#F8CC5D"/>
<path d="M52.6282 30.6998L49.024 31.6661C48.5084 33.076 48.1912 34.5507 48.0813 36.0479L51.8634 35.0339C51.943 33.5637 52.1998 32.1084 52.6282 30.6998Z" fill="#F8CC5D"/>
<path d="M52.8233 43.0319L48.9703 44.0649C49.4796 45.7896 50.1965 47.4461 51.1053 48.9979L54.9142 47.9767C54.0314 46.4133 53.3299 44.7543 52.8233 43.0319Z" fill="#F8CC5D"/>
<path d="M55.238 25.9185C54.9785 25.9561 54.7214 26.009 54.4682 26.0772C52.4605 26.6154 50.8481 28.0647 49.737 30.0983L53.1847 29.174C53.6839 27.9825 54.3778 26.8823 55.238 25.9185Z" fill="#F8CC5D"/>
<path d="M55.6431 49.1588L51.8609 50.1729C52.7051 51.4142 53.7176 52.5324 54.8693 53.4953L58.4731 52.5291C57.3977 51.5235 56.4475 50.3919 55.6431 49.1588Z" fill="#F8CC5D"/>
<path d="M59.7149 53.5702L56.2672 54.4946C58.2468 55.7001 60.3678 56.1479 62.3763 55.6094C62.6297 55.5417 62.8788 55.459 63.1223 55.3616C61.895 54.9576 60.7435 54.3522 59.7149 53.5702Z" fill="#F8CC5D"/>
<path d="M59.2552 23.4159L54.119 24.7929C51.1537 25.588 48.841 28.0346 47.6079 31.6828C46.4062 35.236 46.3709 39.5284 47.5081 43.7697C48.6452 48.011 50.8231 51.71 53.6412 54.1855C56.5339 56.727 59.7604 57.6889 62.7258 56.8939L67.8619 55.5168C70.8272 54.7217 73.1395 52.2753 74.3731 48.627C75.5756 45.0735 75.6099 40.7809 74.4728 36.54C73.3358 32.2991 71.1587 28.5995 68.3397 26.1242C65.4465 23.5824 62.2205 22.6208 59.2552 23.4159ZM54.4633 26.077C54.7165 26.0088 54.9736 25.9558 55.2332 25.9183C54.3724 26.8821 53.678 27.9824 53.1785 29.1741L49.7308 30.0985C50.8415 28.065 52.4547 26.6155 54.4633 26.077ZM49.0162 31.6665L52.6204 30.7001C52.1924 32.1087 51.9359 33.5639 51.8564 35.034L48.0734 36.0482C48.1834 34.5511 48.5006 33.0764 49.0162 31.6665ZM48.0098 37.4417L51.8186 36.4204C51.8365 38.2157 52.0592 40.0031 52.4823 41.7479L48.6289 42.781C48.2069 41.0329 47.999 39.24 48.0098 37.4417ZM48.9732 44.0651L52.8262 43.032C53.3326 44.7544 54.034 46.4135 54.9166 47.9769L51.1082 48.998C50.1993 47.4463 49.4823 45.7898 48.9732 44.0651ZM54.8688 53.4951C53.7171 52.5322 52.7046 51.414 51.8604 50.1726L55.6434 49.1584C56.4478 50.3915 57.398 51.5231 58.4734 52.5286L54.8688 53.4951ZM62.3815 55.6098C60.373 56.1483 58.2514 55.7002 56.2724 54.4951L59.7201 53.5707C60.7484 54.3523 61.8995 54.9575 63.1264 55.3614C62.8829 55.4588 62.6338 55.5415 62.3804 55.6092M67.5165 54.2321C67.2633 54.3003 67.0062 54.3533 66.7466 54.3907C66.1021 54.481 65.4481 54.4794 64.8041 54.3859C60.2757 53.7501 55.7452 48.8252 53.9283 42.0483C52.1113 35.2715 53.5702 28.7403 57.1746 25.9226C57.6854 25.5194 58.2509 25.1908 58.8541 24.9466C59.0976 24.8491 59.3467 24.7664 59.6001 24.6988C64.9094 23.2762 71.0057 28.7418 73.1888 36.8843C75.3719 45.0268 72.8277 52.809 67.5176 54.2327" fill="black"/>
<path d="M67.19 34.3534L67.385 48.1013C67.3888 48.1856 67.3697 48.2694 67.3298 48.3437C67.2898 48.4181 67.2304 48.4802 67.1579 48.5235C67.0997 48.5563 67.0346 48.5754 66.9679 48.5792C66.8409 48.5809 66.7168 48.5412 66.6144 48.4662C66.5119 48.3911 66.4367 48.2848 66.4 48.1633L64.0128 40.8463L60.1626 43.0356C60.0899 43.0746 60.0085 43.0942 59.9261 43.0925C59.8437 43.0908 59.7631 43.0679 59.6921 43.026C59.6143 42.9826 59.5468 42.923 59.494 42.8513C59.4412 42.7795 59.4044 42.6973 59.3861 42.6101L57.3669 32.7458C57.3419 32.6461 57.3493 32.5411 57.3879 32.446C57.4266 32.3508 57.4945 32.2704 57.582 32.2164L61.4682 30.006C61.5426 29.9659 61.6264 29.9461 61.7109 29.9486C61.7955 29.9511 61.8779 29.9758 61.9499 30.0202C62.0285 30.0664 62.096 30.1293 62.1476 30.2045C62.1993 30.2797 62.2337 30.3653 62.2486 30.4553L63.0944 35.7009L66.4023 33.82C66.4833 33.7773 66.5747 33.7581 66.6661 33.7648C66.7574 33.7715 66.8451 33.8037 66.919 33.8578C67.0002 33.9132 67.0671 33.987 67.1141 34.0733C67.1612 34.1595 67.1871 34.2557 67.1897 34.3539" fill="#FF007C"/>
<path d="M66.4026 33.8195L63.0949 35.7008L62.2483 30.4564C62.2334 30.3664 62.1988 30.2808 62.1471 30.2056C62.0954 30.1305 62.0278 30.0676 61.9492 30.0214C61.8772 29.977 61.7948 29.9522 61.7102 29.9497C61.6257 29.9473 61.5419 29.9671 61.4675 30.0072L57.5818 32.216C57.4943 32.27 57.4263 32.3505 57.3877 32.4458C57.349 32.541 57.3417 32.6461 57.3669 32.7458L59.386 42.6097C59.4037 42.6968 59.4399 42.7792 59.4922 42.8512C59.5445 42.9231 59.6116 42.983 59.689 43.0269C59.76 43.0687 59.8405 43.0915 59.9229 43.0932C60.0053 43.0949 60.0867 43.0754 60.1594 43.0365L64.0096 40.8467L66.3968 48.1641C66.4335 48.2857 66.5087 48.3921 66.6112 48.4671C66.7136 48.5422 66.8377 48.5818 66.9647 48.5801C67.0315 48.5763 67.0965 48.5572 67.1548 48.5243C67.2272 48.481 67.2866 48.4189 67.3266 48.3446C67.3666 48.2703 67.3857 48.1865 67.3819 48.1022L67.1846 34.3548C67.182 34.2566 67.1561 34.1604 67.1091 34.0742C67.062 33.9879 66.9951 33.9141 66.914 33.8587C66.84 33.8046 66.7524 33.7724 66.661 33.7657C66.5697 33.759 66.4783 33.7782 66.3973 33.8209" fill="black"/>
</svg>
