<svg width="131" height="32" viewBox="0 0 131 32" fill="none" xmlns="http://www.w3.org/2000/svg">
<path d="M34.2642 11.3411H47.4528V13.7964H42.2602V27.6361H39.4128V13.7964H34.2422L34.2642 11.3411ZM46.8878 15.8416H49.3211V18.1229H49.3641C49.4579 17.7863 49.6124 17.4698 49.8201 17.1888C50.041 16.8724 50.3111 16.5935 50.6202 16.3627C50.9307 16.102 51.2835 15.8963 51.6634 15.7546C52.0278 15.6007 52.4189 15.5195 52.8145 15.5156C53.1145 15.5156 53.3356 15.5376 53.4446 15.5376C53.559 15.5626 53.6755 15.577 53.7926 15.5806V18.0809C53.6063 18.0397 53.4176 18.0106 53.2275 17.9939C53.0402 17.9687 52.8515 17.9544 52.6625 17.9509C52.236 17.9493 51.8139 18.0383 51.4243 18.2119C51.0356 18.3929 50.6881 18.6515 50.4032 18.972C50.0976 19.3476 49.8606 19.7742 49.7031 20.2322C49.5203 20.7931 49.4321 21.3805 49.4421 21.9704V27.5711H46.8438L46.8878 15.8416ZM65.7471 27.6431H63.1838V25.9919H63.1398C62.8072 26.5961 62.3099 27.0935 61.7056 27.4261C61.1219 27.7779 60.4539 27.9655 59.7724 27.9691C59.1614 28.0287 58.5448 27.9568 57.964 27.7582C57.3832 27.5597 56.8516 27.2391 56.4049 26.818C55.6374 25.829 55.2655 24.5897 55.3618 23.3416V15.8416H57.9691V23.0765C57.8845 23.8587 58.102 24.6437 58.5772 25.2708C58.7924 25.4939 59.0535 25.6678 59.3423 25.7803C59.6312 25.8929 59.941 25.9415 60.2504 25.9229C60.7204 25.9375 61.1879 25.8484 61.6196 25.6619C61.9662 25.512 62.2718 25.2812 62.5107 24.9888C62.7495 24.6887 62.9201 24.3403 63.0108 23.9676C63.1187 23.549 63.1698 23.1177 63.1628 22.6855V15.8416H65.7701V27.6431H65.7471ZM70.1797 23.8626C70.1903 24.1796 70.2743 24.4899 70.4251 24.769C70.5759 25.048 70.7894 25.2883 71.0488 25.4708C71.5953 25.7859 72.2184 25.9437 72.849 25.9269C73.1255 25.9244 73.4016 25.9027 73.6751 25.8619C73.9726 25.8256 74.2646 25.7527 74.5442 25.6449C74.8082 25.5502 75.041 25.3848 75.2173 25.1668C75.3978 24.9412 75.4835 24.6543 75.4563 24.3667C75.4527 24.2115 75.4181 24.0587 75.3548 23.917C75.2914 23.7753 75.2005 23.6477 75.0873 23.5416C74.8284 23.321 74.5347 23.145 74.2182 23.0205C73.8223 22.878 73.4151 22.769 73.001 22.6945C72.545 22.6075 72.0889 22.4945 71.6109 22.3944C71.1328 22.2944 70.6547 22.1554 70.1987 22.0034C69.7601 21.8641 69.3485 21.651 68.9815 21.3733C68.6216 21.1143 68.3307 20.7708 68.1344 20.3732C67.9026 19.908 67.7906 19.3924 67.8084 18.873C67.7833 18.2985 67.9516 17.7322 68.2864 17.2648C68.5988 16.8293 69.0079 16.4723 69.4816 16.2216C69.9845 15.9497 70.5273 15.759 71.0898 15.6566C71.6417 15.555 72.2018 15.5041 72.763 15.5046C73.3482 15.503 73.9316 15.5701 74.5012 15.7046C75.0361 15.8194 75.5449 16.033 76.0014 16.3347C76.4535 16.6202 76.8329 17.0072 77.1095 17.4648C77.4229 17.9722 77.6162 18.5445 77.6746 19.138H74.9583C74.9265 18.876 74.8332 18.6253 74.686 18.4062C74.5388 18.1872 74.3418 18.0062 74.1112 17.8779C73.6286 17.6533 73.1011 17.5418 72.569 17.5518C72.3949 17.5518 72.1559 17.5738 71.9169 17.5948C71.6728 17.6297 71.4327 17.688 71.1998 17.7689C70.9887 17.8529 70.7965 17.9784 70.6347 18.1379C70.5549 18.2217 70.4927 18.3206 70.4516 18.4288C70.4106 18.537 70.3916 18.6523 70.3957 18.768C70.3896 18.911 70.4157 19.0536 70.4722 19.1852C70.5286 19.3167 70.6139 19.4339 70.7217 19.5281C70.9808 19.743 71.2748 19.9122 71.5908 20.0281C71.9868 20.1705 72.3939 20.2796 72.808 20.3542C73.264 20.4412 73.7421 20.5542 74.2202 20.6542C74.6982 20.7542 75.1543 20.8933 75.6103 21.0453C76.0509 21.1798 76.4633 21.3933 76.8275 21.6753C77.1828 21.9366 77.479 22.2699 77.6966 22.6535C77.9262 23.1036 78.0383 23.6046 78.0226 24.1097C78.0436 24.7377 77.8772 25.3577 77.5446 25.8909C77.222 26.3731 76.7998 26.7806 76.3064 27.086C75.7784 27.3938 75.2074 27.621 74.6122 27.7601C74.0055 27.8953 73.3865 27.9681 72.765 27.9771C72.0683 27.983 71.374 27.8951 70.7007 27.7161C70.1104 27.5605 69.5516 27.3033 69.0495 26.956C68.5926 26.619 68.2207 26.1799 67.9634 25.6738C67.6824 25.1061 67.534 24.482 67.5293 23.8486H70.1587V23.8706L70.1797 23.8626ZM78.7617 15.8456H80.739V12.2822H83.3483V15.8236H85.6946V17.7568H83.3483V24.0576C83.3498 24.2973 83.3641 24.5366 83.3913 24.7747C83.4125 24.949 83.4639 25.1182 83.5433 25.2748C83.6353 25.4079 83.7633 25.512 83.9124 25.5748C84.1371 25.6539 84.3744 25.6908 84.6125 25.6838C84.7938 25.6874 84.9751 25.68 85.1555 25.6619C85.3381 25.6435 85.5194 25.6144 85.6986 25.5748V27.5951C85.4166 27.6381 85.1335 27.6601 84.8515 27.6821C84.5707 27.7186 84.2875 27.733 84.0044 27.7251C83.4471 27.7408 82.8906 27.6733 82.3532 27.5251C81.9864 27.4182 81.6509 27.2244 81.3751 26.96C81.1362 26.6962 80.9712 26.3739 80.897 26.0259C80.8081 25.5978 80.7572 25.1628 80.745 24.7257V17.7719H78.7677V15.8416L78.7617 15.8456ZM87.5178 15.8456H89.9731V17.4418H90.0161C90.3423 16.7921 90.8783 16.2716 91.5373 15.9646C92.2042 15.6557 92.9317 15.4999 93.6666 15.5086C94.5057 15.4822 95.3392 15.6535 96.0999 16.0086C96.7724 16.3124 97.3613 16.7746 97.8161 17.3558C98.2876 17.947 98.6349 18.6274 98.8372 19.356C99.2854 20.9011 99.3003 22.5397 98.8802 24.0927C98.6847 24.8005 98.3688 25.4694 97.9461 26.0699C97.5292 26.6417 96.9865 27.1101 96.3599 27.4391C95.6623 27.7991 94.8855 27.9783 94.1007 27.9601C93.7215 27.9561 93.3434 27.9197 92.9705 27.8511C92.5969 27.7857 92.2323 27.6762 91.8844 27.5251C91.539 27.3765 91.217 27.1788 90.9283 26.938C90.6372 26.7061 90.3873 26.4268 90.1892 26.1119H90.1492V31.9996H87.5388V15.8416L87.5178 15.8456ZM96.619 21.7554C96.623 21.2334 96.5499 20.7137 96.4019 20.2132C96.2768 19.7359 96.0631 19.2863 95.7719 18.888C95.4975 18.5113 95.1503 18.1937 94.7507 17.9539C94.3192 17.7146 93.8318 17.5944 93.3386 17.6058C92.8645 17.5757 92.3904 17.6632 91.9582 17.8603C91.5261 18.0575 91.1493 18.3582 90.8613 18.736C90.2746 19.6384 89.9856 20.7021 90.0351 21.7774C90.0252 22.3355 90.0983 22.892 90.2522 23.4286C90.3808 23.901 90.6025 24.3431 90.9043 24.7287C91.1835 25.0919 91.5397 25.3887 91.9474 25.5978C92.3836 25.8224 92.869 25.9345 93.3596 25.9239C93.8838 25.9392 94.4024 25.8116 94.8598 25.5548C95.2589 25.3145 95.6061 24.9969 95.8809 24.6207C96.1515 24.2188 96.3433 23.7691 96.4459 23.2956C96.5577 22.7873 96.6161 22.2687 96.62 21.7483L96.619 21.7554ZM101.204 11.3481H103.811V13.8033H101.204V11.3481ZM101.204 15.8486H103.811V27.6501H101.204V15.8486ZM106.135 11.3481H108.742V27.6431H106.135V11.3481ZM116.694 27.9691C115.83 27.9869 114.972 27.8241 114.174 27.4911C113.472 27.1925 112.837 26.7566 112.306 26.2089C111.788 25.6349 111.395 24.9596 111.152 24.2257C110.877 23.4207 110.738 22.5759 110.739 21.7254C110.727 20.8815 110.867 20.0425 111.152 19.248C111.4 18.5188 111.791 17.8466 112.303 17.2708C112.824 16.7115 113.462 16.2738 114.171 15.9886C114.972 15.6658 115.828 15.5034 116.691 15.5106C117.556 15.4927 118.414 15.6556 119.212 15.9886C119.918 16.2792 120.555 16.7162 121.08 17.2708C121.596 17.8433 121.988 18.5165 122.231 19.248C122.505 20.0451 122.645 20.8824 122.644 21.7254C122.658 22.5768 122.518 23.4238 122.231 24.2257C121.975 24.951 121.584 25.6216 121.08 26.2029C120.559 26.7622 119.921 27.1999 119.212 27.4851C118.413 27.8089 117.558 27.971 116.696 27.9621L116.694 27.9691ZM116.694 25.9049C117.218 25.9147 117.735 25.7875 118.195 25.5358C118.61 25.3005 118.967 24.9735 119.238 24.5797C119.518 24.1779 119.724 23.7291 119.846 23.2545C120.107 22.2646 120.107 21.2241 119.846 20.2342C119.728 19.7581 119.522 19.3085 119.238 18.909C118.961 18.5266 118.605 18.2081 118.195 17.9749C117.734 17.7258 117.218 17.5987 116.694 17.6058C116.171 17.5958 115.654 17.723 115.194 17.9749C114.784 18.2087 114.429 18.5272 114.151 18.909C113.867 19.3086 113.661 19.7582 113.543 20.2342C113.282 21.2241 113.282 22.2646 113.543 23.2545C113.662 23.7282 113.868 24.1753 114.152 24.5727C114.428 24.9616 114.784 25.2875 115.195 25.5288C115.652 25.788 116.172 25.9158 116.696 25.8979L116.694 25.9049ZM123.43 15.8456H125.408V12.2822H128.015V15.8236H130.361V17.7568H128.015V24.0576C128.016 24.2973 128.031 24.5366 128.058 24.7747C128.079 24.949 128.131 25.1182 128.21 25.2748C128.302 25.4079 128.43 25.512 128.579 25.5748C128.804 25.6539 129.041 25.6908 129.279 25.6838C129.46 25.6874 129.642 25.68 129.822 25.6619C130.005 25.6435 130.186 25.6144 130.365 25.5748V27.5951C130.083 27.6381 129.8 27.6601 129.518 27.6821C129.237 27.7186 128.954 27.733 128.671 27.7251C128.114 27.7408 127.557 27.6733 127.02 27.5251C126.653 27.4182 126.317 27.2244 126.042 26.96C125.803 26.6962 125.638 26.3739 125.564 26.0259C125.475 25.5978 125.424 25.1628 125.412 24.7257V17.7719H123.434V15.8416L123.43 15.8456Z" fill="white"/>
<path d="M31.2219 11.3414H19.2934L15.622 0L11.9285 11.3414L0 11.3194L9.64721 18.3373L5.95374 29.6787L15.6009 22.6608L25.2482 29.6787L21.5767 18.3373L31.2219 11.3414Z" fill="#00B67A"/>
<path d="M22.4012 20.9019L21.5751 18.3386L15.6224 22.6612L22.4012 20.9019Z" fill="#005128"/>
</svg>
