<svg width="18" height="16" viewBox="0 0 18 16" fill="none" xmlns="http://www.w3.org/2000/svg">
<path d="M16.2813 0.819458C17.2354 0.819646 17.9999 1.58411 18.0001 2.53821V6.0802C17.5274 6.1051 17.0787 6.30433 16.7423 6.64075C16.3821 7.00103 16.1798 7.48971 16.1798 7.99915C16.1798 8.50857 16.3822 8.99725 16.7423 9.35754C17.0787 9.69396 17.5274 9.89319 18.0001 9.91809V13.4601C18 14.4143 17.2355 15.1786 16.2813 15.1788H1.71884C1.26322 15.1787 0.826271 14.998 0.503998 14.6759C0.181645 14.3536 0.000137707 13.916 9.15527e-05 13.4601V9.91809C1.01861 9.86602 1.8204 9.03129 1.8204 7.99915C1.82038 7.48971 1.61807 7.00103 1.2579 6.64075C0.921489 6.30433 0.472827 6.1051 9.15527e-05 6.0802V2.53821C0.000184561 2.0824 0.181687 1.64568 0.503998 1.32336C0.826309 1.00105 1.26303 0.819551 1.71884 0.819458H16.2813ZM1.61826 2.43762V4.90833L1.66904 4.93762C2.2066 5.24763 2.65254 5.69425 2.96298 6.23157C3.27344 6.76896 3.43758 7.37852 3.43759 7.99915C3.43759 8.61978 3.27344 9.22932 2.96298 9.76672C2.65256 10.3041 2.2066 10.7506 1.66904 11.0607L1.61826 11.09V13.5607H16.3819V11.09L16.3311 11.0607C15.7936 10.7506 15.3476 10.3041 15.0372 9.76672C14.7267 9.22932 14.5626 8.61978 14.5626 7.99915C14.5626 7.37852 14.7267 6.76896 15.0372 6.23157C15.3476 5.69425 15.7936 5.24763 16.3311 4.93762L16.3819 4.90833V2.43762H1.61826ZM11.2755 9.01086C11.975 9.01092 12.5392 9.57503 12.5392 10.2745C12.5391 10.974 11.975 11.5381 11.2755 11.5382C10.5759 11.5382 10.0118 10.9741 10.0118 10.2745C10.0118 9.57499 10.5759 9.01086 11.2755 9.01086ZM12.4972 5.45129L6.45224 11.4962L5.50302 10.548L11.5479 4.50208L12.4972 5.45129ZM6.7247 4.46008C7.42418 4.46008 7.98827 5.0243 7.98837 5.72375C7.98837 6.4233 7.42425 6.9884 6.7247 6.9884C6.02521 6.98834 5.46103 6.42326 5.46103 5.72375C5.46114 5.02434 6.02527 4.46014 6.7247 4.46008Z" fill="black"/>
</svg>
