<svg width="18" height="18" viewBox="0 0 18 18" fill="none" xmlns="http://www.w3.org/2000/svg">
<path d="M17.25 7.5H16.5V4.5C16.5 4.30109 16.421 4.11032 16.2803 3.96967C16.1397 3.82902 15.9489 3.75 15.75 3.75H12.75V1.5C12.75 1.30109 12.671 1.11032 12.5303 0.96967C12.3897 0.829018 12.1989 0.75 12 0.75H2.25C1.65343 0.75053 1.08144 0.987753 0.659595 1.40959C0.237753 1.83144 0.000529583 2.40343 0 3L0 15C0.000529583 15.5966 0.237753 16.1686 0.659595 16.5904C1.08144 17.0122 1.65343 17.2495 2.25 17.25H15.75C15.9489 17.25 16.1397 17.171 16.2803 17.0303C16.421 16.8897 16.5 16.6989 16.5 16.5V13.5H17.25C17.4489 13.5 17.6397 13.421 17.7803 13.2803C17.921 13.1397 18 12.9489 18 12.75V8.25C18 8.05109 17.921 7.86032 17.7803 7.71967C17.6397 7.57902 17.4489 7.5 17.25 7.5ZM2.25 2.25H11.25V3.75H2.25C2.05109 3.75 1.86032 3.67098 1.71967 3.53033C1.57902 3.38968 1.5 3.19891 1.5 3C1.5 2.80109 1.57902 2.61032 1.71967 2.46967C1.86032 2.32902 2.05109 2.25 2.25 2.25ZM15 15.75H2.25C2.05117 15.7497 1.86056 15.6706 1.71996 15.53C1.57937 15.3894 1.50026 15.1988 1.5 15V5.121C1.74224 5.20087 1.99499 5.24434 2.25 5.25H15V7.5H14.25C13.4544 7.5 12.6913 7.81607 12.1287 8.37868C11.5661 8.94129 11.25 9.70435 11.25 10.5C11.25 11.2956 11.5661 12.0587 12.1287 12.6213C12.6913 13.1839 13.4544 13.5 14.25 13.5H15V15.75ZM16.5 12H14.25C13.8522 12 13.4706 11.842 13.1893 11.5607C12.908 11.2794 12.75 10.8978 12.75 10.5C12.75 10.1022 12.908 9.72064 13.1893 9.43934C13.4706 9.15804 13.8522 9 14.25 9H16.5V12Z" fill="black"/>
<path d="M14.063 10.876C14.3739 10.876 14.626 10.6239 14.626 10.313C14.626 10.0021 14.3739 9.75 14.063 9.75C13.7521 9.75 13.5 10.0021 13.5 10.313C13.5 10.6239 13.7521 10.876 14.063 10.876Z" fill="black"/>
</svg>
